<svg width="32" height="32" viewBox="0 0 32 32" fill="none" xmlns="http://www.w3.org/2000/svg">
<rect x="0.5" y="0.5" width="31" height="31" rx="3.5" fill="white"/>
<rect x="0.5" y="0.5" width="31" height="31" rx="3.5" stroke="#E0E0E0"/>
<path d="M9.39238 15.3037H23.3043C23.4888 15.3037 23.6658 15.377 23.7962 15.5074C23.9267 15.6379 23.9999 15.8148 23.9999 15.9993C23.9999 16.1838 23.9267 16.3607 23.7962 16.4912C23.6658 16.6216 23.4888 16.6949 23.3043 16.6949H9.39238C9.20789 16.6949 9.03096 16.6216 8.90051 16.4912C8.77006 16.3607 8.69678 16.1838 8.69678 15.9993C8.69678 15.8148 8.77006 15.6379 8.90051 15.5074C9.03096 15.377 9.20789 15.3037 9.39238 15.3037Z" fill="black"/>
<path d="M9.68042 15.9998L15.4497 21.7677C15.5803 21.8983 15.6537 22.0755 15.6537 22.2602C15.6537 22.4449 15.5803 22.6221 15.4497 22.7527C15.3191 22.8833 15.1419 22.9567 14.9572 22.9567C14.7725 22.9567 14.5954 22.8833 14.4647 22.7527L8.20436 16.4923C8.13958 16.4277 8.08818 16.3509 8.05312 16.2664C8.01805 16.1819 8 16.0913 8 15.9998C8 15.9083 8.01805 15.8177 8.05312 15.7332C8.08818 15.6487 8.13958 15.572 8.20436 15.5073L14.4647 9.24696C14.5954 9.11635 14.7725 9.04297 14.9572 9.04297C15.1419 9.04297 15.3191 9.11635 15.4497 9.24696C15.5803 9.37758 15.6537 9.55473 15.6537 9.73945C15.6537 9.92416 15.5803 10.1013 15.4497 10.2319L9.68042 15.9998Z" fill="black"/>
</svg>
