<svg width="32" height="32" viewBox="0 0 32 32" fill="none" xmlns="http://www.w3.org/2000/svg">
<rect x="0.5" y="0.5" width="31" height="31" rx="3.5" stroke="#EF4444"/>
<path d="M10.9107 10.375C10.2714 10.375 9.65818 10.629 9.20608 11.0811C8.75399 11.5332 8.5 12.1464 8.5 12.7857V19.2143C8.5 19.8536 8.75399 20.4668 9.20608 20.9189C9.65818 21.371 10.2714 21.625 10.9107 21.625H17.3393C17.9786 21.625 18.5918 21.371 19.0439 20.9189C19.496 20.4668 19.75 19.8536 19.75 19.2143V18.4193L21.9041 20.0784C22.5561 20.5798 23.5 20.1154 23.5 19.293V12.707C23.5 11.8846 22.5561 11.4202 21.9041 11.9216L19.75 13.5807V12.7857C19.75 12.1464 19.496 11.5332 19.0439 11.0811C18.5918 10.629 17.9786 10.375 17.3393 10.375H10.9107ZM19.2143 14.1223V19.2143C19.2143 19.7116 19.0167 20.1885 18.6651 20.5401C18.3135 20.8917 17.8366 21.0893 17.3393 21.0893H10.9107C10.4134 21.0893 9.93652 20.8917 9.58489 20.5401C9.23326 20.1885 9.03571 19.7116 9.03571 19.2143V12.7857C9.03571 12.2884 9.23326 11.8115 9.58489 11.4599C9.93652 11.1083 10.4134 10.9107 10.9107 10.9107H17.3393C17.8366 10.9107 18.3135 11.1083 18.6651 11.4599C19.0167 11.8115 19.2143 12.2884 19.2143 12.7857V14.1223ZM19.75 17.7432V14.2568L22.2309 12.3464C22.2983 12.2945 22.3788 12.2625 22.4635 12.254C22.5481 12.2455 22.6335 12.2609 22.7098 12.2984C22.7862 12.3359 22.8505 12.3941 22.8954 12.4663C22.9404 12.5385 22.9643 12.6219 22.9643 12.707V19.293C22.9643 19.3781 22.9404 19.4615 22.8954 19.5337C22.8505 19.6059 22.7862 19.6641 22.7098 19.7016C22.6335 19.7391 22.5481 19.7545 22.4635 19.746C22.3788 19.7375 22.2983 19.7055 22.2309 19.6536L19.75 17.7432Z" fill="#EF4444"/>
</svg>
