<svg width="100" height="100" viewBox="0 0 100 100" fill="none" xmlns="http://www.w3.org/2000/svg">
<path d="M73.3446 79.8589L62.6676 75.6466L64.4604 71.2382L75.1374 75.431L73.3446 79.8589ZM63.1258 89.7727L71.7909 81.8182C69.4603 80.8973 64.7592 79.0556 62.4286 78.1348C62.4087 78.1544 63.0859 89.3417 63.1258 89.7727ZM65.3767 69.0243L76.0537 73.2367L79.2807 65.3017C79.2608 65.3017 96.7504 22.4138 96.7504 22.4138L86.0734 18.2014C80.9141 30.8581 70.516 56.3871 65.3767 69.0243ZM98.0053 10.9326L93.2046 9.03213C91.631 8.36599 89.6988 9.20846 89.1012 10.7759L86.9698 15.9875L97.6468 20.1803L99.7582 14.9687C100.436 13.3817 99.6387 11.5596 98.0053 10.9326ZM75.1573 81.8574C76.0338 79.7218 78.3445 74.0204 79.1811 71.9632V97.7665C79.1811 99.0008 78.1652 100 76.9103 100H2.27085C1.01591 100 0 99.0008 0 97.7665V2.23354C0 0.999216 1.01591 0 2.27085 0H76.9103C78.1851 0 79.1811 0.999216 79.1811 2.23354V28.6246C75.6952 37.2257 63.2055 67.8487 59.9386 75.9208C59.8988 76.0776 59.8589 76.2343 59.8589 76.3911L60.8151 92.4569C60.835 93.4365 62.1298 93.9263 62.8469 93.2798C62.8668 93.2798 62.8668 93.2602 62.8668 93.2602L74.8386 82.2884C74.998 82.1708 75.0776 82.0141 75.1573 81.8574ZM67.6874 42.8096H38.3854C36.7918 42.8096 36.7918 45.1998 38.3854 45.1998H67.6874C69.3009 45.1998 69.281 42.8096 67.6874 42.8096ZM67.6874 20.8072H38.3854C36.7918 20.8072 36.7918 23.1975 38.3854 23.1975H67.6874C69.3009 23.1975 69.281 20.8072 67.6874 20.8072ZM38.3854 15.8895H57.7873C59.3809 15.8895 59.3809 13.4992 57.7873 13.4992H38.3854C36.7719 13.4992 36.7918 15.8699 38.3854 15.8895ZM38.3854 37.8918H57.7873C59.3809 37.8918 59.3809 35.5016 57.7873 35.5016H38.3854C36.7719 35.5016 36.7918 37.8918 38.3854 37.8918ZM8.70494 21.3558C8.70494 23.3346 10.3384 24.9216 12.3303 24.9216C13.9239 24.9216 13.9239 22.5313 12.3303 22.5313C11.673 22.5313 11.1352 22.0023 11.1352 21.3558V15.3409C11.1352 14.6944 11.673 14.1654 12.3303 14.1654H18.4457C18.8839 14.1654 19.2823 14.4005 19.5015 14.7727C19.8202 15.3605 20.5572 15.5564 21.1548 15.2429C23.1069 13.8127 20.0592 11.5987 18.4457 11.7555H12.3303C10.3184 11.7555 8.70494 13.3621 8.70494 15.3213V21.3558ZM8.70494 43.3582C8.70494 45.337 10.3384 46.924 12.3303 46.924C13.9239 46.924 13.9239 44.5337 12.3303 44.5337C11.673 44.5337 11.1352 44.0047 11.1352 43.3582V37.3433C11.1352 36.6967 11.673 36.1677 12.3303 36.1677H18.4457C18.8839 36.1677 19.2823 36.4028 19.5015 36.7751C19.8202 37.3629 20.5572 37.5588 21.1548 37.2453C23.1069 35.815 20.0592 33.6011 18.4457 33.7578H12.3303C10.3184 33.7578 8.70494 35.3644 8.70494 37.3237V43.3582ZM8.70494 65.3605C8.70494 67.3393 10.3384 68.9263 12.3303 68.9263C13.9239 68.9263 13.9239 66.536 12.3303 66.536C11.673 66.536 11.1352 66.007 11.1352 65.3605V59.3456C11.1352 58.6991 11.673 58.1701 12.3303 58.1701H18.4457C18.8839 58.1701 19.2823 58.4052 19.5015 58.7774C19.8202 59.3652 20.5572 59.5611 21.1548 59.2477C23.1069 57.8174 20.0592 55.6034 18.4457 55.7602H12.3303C10.3184 55.7602 8.70494 57.3668 8.70494 59.326V65.3605ZM12.3303 88.5384C11.673 88.5384 11.1352 88.0094 11.1352 87.3629V81.348C11.1352 80.7014 11.673 80.1724 12.3303 80.1724H18.4457C18.8839 80.1724 19.2823 80.4075 19.5015 80.7798C19.8202 81.3676 20.5572 81.5635 21.1548 81.25C23.1069 79.8197 20.0592 77.6058 18.4457 77.7625H12.3303C10.3184 77.7625 8.70494 79.3691 8.70494 81.3284V87.3433C8.70494 89.3221 10.3384 90.9091 12.3303 90.9091C13.9239 90.9483 13.9438 88.558 12.3303 88.5384ZM26.1547 80.1528L19.5015 86.6967L16.2745 83.5227C15.139 82.4256 13.4259 84.1105 14.5414 85.2273L18.6449 89.2633C18.8839 89.4984 19.2027 89.616 19.5015 89.616C19.8003 89.616 20.119 89.4984 20.358 89.2633L27.8877 81.8574C29.0032 80.721 27.2901 79.036 26.1547 80.1528ZM26.1547 58.1505L19.5015 64.6944L16.2745 61.5204C15.139 60.4232 13.4259 62.1082 14.5414 63.2249L18.625 67.2414C18.864 67.4765 19.1827 67.594 19.4815 67.594C19.7803 67.594 20.0991 67.4765 20.3381 67.2414L27.8678 59.8354C29.0032 58.7187 27.2901 57.0337 26.1547 58.1505ZM26.1547 36.1285L19.5015 42.6724L16.2745 39.4984C15.139 38.4013 13.4259 40.0862 14.5414 41.203L18.6449 45.239C18.8839 45.4741 19.2027 45.5917 19.5015 45.5917C19.8003 45.5917 20.119 45.4741 20.358 45.239L27.8877 37.8331C29.0032 36.7163 27.2901 35.0313 26.1547 36.1285ZM26.1547 14.1262L19.5015 20.6701L16.2745 17.4961C15.139 16.3989 13.4259 18.0839 14.5414 19.2006L18.6449 23.2367C18.8839 23.4718 19.2027 23.5893 19.5015 23.5893C19.8003 23.5893 20.119 23.4718 20.358 23.2367L27.8877 15.8307C29.0032 14.7139 27.2901 13.029 26.1547 14.1262ZM53.9627 86.8339H38.3854C36.7918 86.8339 36.7918 89.2241 38.3854 89.2241H53.9627C55.5563 89.2241 55.5363 86.8339 53.9627 86.8339ZM38.3854 81.8965H53.3252C54.0025 81.8965 54.5404 81.3676 54.5404 80.7014C54.5404 80.0353 54.0025 79.5063 53.3252 79.5063H38.3854C37.7081 79.5063 37.1703 80.0353 37.1703 80.7014C37.1504 81.3676 37.7081 81.8965 38.3854 81.8965ZM55.8551 64.8119H38.3655C37.6882 64.8119 37.1504 65.3409 37.1504 66.0071C37.1504 66.6732 37.6882 67.2022 38.3655 67.2022H55.8551C57.4686 67.2022 57.4486 64.8315 55.8551 64.8119ZM56.5921 57.5039H38.3655C36.7719 57.5039 36.7719 59.8942 38.3655 59.8942H56.5921C58.2056 59.8942 58.1857 57.5039 56.5921 57.5039Z" fill="white"/>
</svg>
