<svg width="70" height="70" viewBox="0 0 70 70" fill="none" xmlns="http://www.w3.org/2000/svg">
<rect width="70" height="70" rx="5" fill="#0F766E"/>
<path d="M40.2734 50.0391C45.6668 50.0391 50.0391 45.6668 50.0391 40.2734C50.0391 34.88 45.6668 30.5078 40.2734 30.5078C34.88 30.5078 30.5078 34.88 30.5078 40.2734C30.5078 45.6668 34.88 50.0391 40.2734 50.0391Z" fill="white"/>
<path d="M59.1419 54.9986L51.0769 46.9336C50.0366 48.6149 48.6151 50.0364 46.9337 51.0769L54.9988 59.1419C56.1429 60.286 57.9979 60.286 59.1419 59.1419C60.2861 57.9978 60.2861 56.1428 59.1419 54.9986Z" fill="white"/>
<path d="M19.7656 10.8582L10.8581 19.7657H19.7656V10.8582Z" fill="white"/>
<path d="M18.7891 35.3906H28.5553C29.3529 33.4834 30.6029 31.8108 32.1707 30.5078H18.7891V35.3906Z" fill="white"/>
<path d="M27.7284 38.3203H17.3242C16.5152 38.3203 15.8594 37.6645 15.8594 36.8555V29.043C15.8594 28.234 16.5152 27.5781 17.3242 27.5781H40.2734C43.2174 27.5781 45.9302 28.5855 48.0859 30.2734V14.3945C48.0859 11.9714 46.1146 10 43.6914 10H22.6953V21.2305C22.6953 22.0395 22.0395 22.6953 21.2305 22.6953H10V55.6055C10 58.0286 11.9714 60 14.3945 60H43.6914C45.8732 60 47.6879 58.4015 48.0279 56.3144L44.0942 52.3807C42.8878 52.7622 41.6044 52.9688 40.2734 52.9688C37.1958 52.9688 34.3707 51.8676 32.1707 50.0391H17.3242C16.5152 50.0391 15.8594 49.3832 15.8594 48.5742C15.8594 47.7652 16.5152 47.1094 17.3242 47.1094H29.5799C28.9994 46.2045 28.5314 45.2212 28.1938 44.1797H17.3242C16.5152 44.1797 15.8594 43.5238 15.8594 42.7148C15.8594 41.9059 16.5152 41.25 17.3242 41.25H27.6153C27.4816 39.7878 27.7284 38.3203 27.7284 38.3203ZM40.7617 24.6484H27.0898C26.2809 24.6484 25.625 23.9926 25.625 23.1836C25.625 22.3746 26.2809 21.7188 27.0898 21.7188H40.7617C41.5707 21.7188 42.2266 22.3746 42.2266 23.1836C42.2266 23.9926 41.5707 24.6484 40.7617 24.6484ZM40.7617 18.7891H27.0898C26.2809 18.7891 25.625 18.1332 25.625 17.3242C25.625 16.5152 26.2809 15.8594 27.0898 15.8594H40.7617C41.5707 15.8594 42.2266 16.5152 42.2266 17.3242C42.2266 18.1332 41.5707 18.7891 40.7617 18.7891Z" fill="white"/>
</svg>
