<svg width="70" height="70" viewBox="0 0 70 70" fill="none" xmlns="http://www.w3.org/2000/svg">
<rect width="70" height="70" rx="5" fill="#0369A1"/>
<path d="M35 36.6667C32.6925 36.6667 30.4369 37.351 28.5183 38.6329C26.5998 39.9149 25.1044 41.737 24.2214 43.8688C23.3384 46.0006 23.1073 48.3464 23.5575 50.6095C24.0077 52.8726 25.1188 54.9514 26.7504 56.583C28.382 58.2146 30.4608 59.3257 32.7239 59.7759C34.987 60.2261 37.3328 59.995 39.4646 59.112C41.5964 58.229 43.4185 56.7336 44.7005 54.8151C45.9824 52.8965 46.6666 50.6409 46.6666 48.3334C46.6666 45.2392 45.4375 42.2718 43.2496 40.0838C41.0616 37.8959 38.0942 36.6667 35 36.6667ZM35 51.6667C34.8442 51.8212 34.6596 51.9434 34.4565 52.0264C34.2534 52.1093 34.036 52.1513 33.8166 52.1501C33.3794 52.1482 32.9604 51.9747 32.65 51.6667L29.3167 48.3334L31.6666 46.0167L33.8666 48.2001L38.3333 43.7501L40.6833 46.1167L35 51.6667Z" fill="white"/>
<path d="M56.6667 10H13.3333C12.4493 10 11.6014 10.3512 10.9763 10.9763C10.3512 11.6014 10 12.4493 10 13.3333V43.3333C10 44.2174 10.3512 45.0652 10.9763 45.6903C11.6014 46.3155 12.4493 46.6667 13.3333 46.6667H20.1C20.5241 43.0124 22.2763 39.6413 25.0235 37.1945C27.7706 34.7477 31.3212 33.3958 35 33.3958C38.6788 33.3958 42.2294 34.7477 44.9765 37.1945C47.7237 39.6413 49.4759 43.0124 49.9 46.6667H56.6667C57.5507 46.6667 58.3986 46.3155 59.0237 45.6903C59.6488 45.0652 60 44.2174 60 43.3333V13.3333C60 12.4493 59.6488 11.6014 59.0237 10.9763C58.3986 10.3512 57.5507 10 56.6667 10ZM15 15H26.6667V18.3333H15V15ZM15 21.6667H23.3333V25H15V21.6667ZM55 38.3333H48.3333V35H55V38.3333ZM53.3333 26.6667H50V22.35L40.7333 31.6667C40.5779 31.828 40.3915 31.9563 40.1853 32.0439C39.9791 32.1315 39.7574 32.1767 39.5333 32.1767C39.3093 32.1767 39.0876 32.1315 38.8814 32.0439C38.6752 31.9563 38.4888 31.828 38.3333 31.6667L33.4833 26.6667L18.2333 40.6833L15.9833 38.2333L32.4 23.2333C32.71 22.9378 33.1218 22.773 33.55 22.773C33.9782 22.773 34.39 22.9378 34.7 23.2333L39.55 28.0833L47.65 20H43.3333V16.6667H51.6667C52.1087 16.6667 52.5326 16.8423 52.8452 17.1548C53.1577 17.4674 53.3333 17.8913 53.3333 18.3333V26.6667Z" fill="white"/>
</svg>
