<svg width="70" height="70" viewBox="0 0 70 70" fill="none" xmlns="http://www.w3.org/2000/svg">
<rect width="70" height="70" rx="5" fill="#9747FF"/>
<path d="M27.2721 25.8911C24.1624 25.8911 21.6326 28.4209 21.6326 31.5307C21.6326 34.6414 24.1624 37.1712 27.2721 37.1712C30.3819 37.1712 32.9126 34.6414 32.9126 31.5307C32.9126 28.4209 30.3819 25.8911 27.2721 25.8911Z" fill="white"/>
<path d="M58.2055 13.4375H11.7936C10.803 13.4375 10 14.2405 10 15.2312V43.9805C10 44.971 10.8029 45.774 11.7936 45.774H12.6449L20.6601 37.7589C20.86 37.559 20.8796 37.2377 20.6981 37.0208C19.3948 35.4626 18.6336 33.4363 18.7083 31.2342C18.8619 26.707 22.5754 23.0505 27.1044 22.9637C31.971 22.8703 35.9474 26.8556 35.8395 31.7243C35.7389 36.257 32.0688 39.9587 27.5371 40.0962C26.178 40.1375 24.8875 39.8602 23.7328 39.3343C23.5244 39.2394 23.2795 39.2822 23.1175 39.4442L16.7868 45.774H58.2055C59.1955 45.774 60 44.9695 60 43.9805V15.2321C60 14.2431 59.1955 13.4375 58.2055 13.4375ZM41.076 38.8661C41.076 39.6755 40.4208 40.3307 39.6114 40.3307C38.803 40.3307 38.1469 39.6755 38.1469 38.8661V33.214C38.1469 32.4056 38.803 31.7494 39.6114 31.7494C40.4208 31.7494 41.076 32.4056 41.076 33.214V38.8661ZM45.6649 38.8661C45.6649 39.6755 45.0098 40.3307 44.2004 40.3307C43.392 40.3307 42.7358 39.6755 42.7358 38.8661V23.4502C42.7358 22.6418 43.392 21.9856 44.2004 21.9856C45.0098 21.9856 45.6649 22.6418 45.6649 23.4502V38.8661ZM50.33 38.8661C50.33 39.6755 49.6738 40.3307 48.8654 40.3307C48.0561 40.3307 47.4009 39.6755 47.4009 38.8661V27.3557C47.4009 26.5473 48.0561 25.8911 48.8654 25.8911C49.6738 25.8911 50.33 26.5473 50.33 27.3557V38.8661ZM54.998 38.8661C54.998 39.6755 54.3419 40.3307 53.5335 40.3307C52.7241 40.3307 52.0689 39.6755 52.0689 38.8661V31.2611C52.0689 30.4527 52.7241 29.7966 53.5335 29.7966C54.3419 29.7966 54.998 30.4527 54.998 31.2611V38.8661Z" fill="white"/>
<path d="M46.7261 53.748L46.7163 53.7438C44.4393 52.7675 42.0801 52.0872 39.6645 51.7053V48.9258C39.6645 48.6232 39.4193 48.3779 39.1167 48.3779H38.1465H36.7355H30.8835C30.581 48.3779 30.3356 48.6232 30.3356 48.9258V51.7088C27.9334 52.0904 25.5871 52.7671 23.3223 53.7367C22.5964 54.0475 22.2144 54.877 22.4944 55.6152C22.792 56.4 23.6798 56.7713 24.4427 56.4433C27.7976 55.002 31.3502 54.2704 35.0017 54.269H35.0322C38.6525 54.269 42.235 55.0061 45.5612 56.4354L45.5796 56.4434C45.7682 56.5244 45.9641 56.5627 46.1571 56.5627C46.8339 56.5626 47.4718 56.0907 47.6053 55.3323C47.722 54.668 47.346 54.0138 46.7261 53.748Z" fill="white"/>
<path d="M12.6447 45.7742L10.4463 47.9769C9.87417 48.5491 9.87417 49.4756 10.4463 50.0478C10.7324 50.3338 11.1074 50.4764 11.4823 50.4764C11.8572 50.4764 12.2322 50.3338 12.5172 50.0478L16.7864 45.7742H12.6447Z" fill="white"/>
</svg>
