<svg width="70" height="70" viewBox="0 0 70 70" fill="none" xmlns="http://www.w3.org/2000/svg">
<rect width="70" height="70" rx="5" fill="#F97316"/>
<path d="M40.8594 12.9297H39.1442C38.5391 11.2245 36.9098 10 35 10C33.0902 10 31.4609 11.2245 30.8558 12.9297H29.1406C26.7174 12.9297 24.7461 14.901 24.7461 17.3242C24.7461 18.1339 25.4013 18.7891 26.2109 18.7891H43.7891C44.5987 18.7891 45.2539 18.1339 45.2539 17.3242C45.2539 14.901 43.2826 12.9297 40.8594 12.9297Z" fill="white"/>
<path d="M49.6484 15.8594H48.0354C48.1319 16.3329 48.1836 16.8227 48.1836 17.3242C48.1836 19.7475 46.2123 21.7188 43.7891 21.7188H26.2109C23.7877 21.7188 21.8164 19.7475 21.8164 17.3242C21.8164 16.8227 21.8681 16.3329 21.9646 15.8594H20.3516C17.9283 15.8594 15.957 17.8307 15.957 20.2539V55.6055C15.957 58.0287 17.9283 60 20.3516 60H49.6484C52.0717 60 54.043 58.0287 54.043 55.6055V20.2539C54.043 17.8307 52.0717 15.8594 49.6484 15.8594ZM30.6055 51.0156H24.7461C23.9364 51.0156 23.2812 50.3605 23.2812 49.5508C23.2812 48.7411 23.9364 48.0859 24.7461 48.0859H30.6055C31.4151 48.0859 32.0703 48.7411 32.0703 49.5508C32.0703 50.3605 31.4151 51.0156 30.6055 51.0156ZM30.6055 40.7617H24.7461C23.9364 40.7617 23.2812 40.1065 23.2812 39.2969C23.2812 38.4872 23.9364 37.832 24.7461 37.832H30.6055C31.4151 37.832 32.0703 38.4872 32.0703 39.2969C32.0703 40.1065 31.4151 40.7617 30.6055 40.7617ZM30.6055 30.5078H24.7461C23.9364 30.5078 23.2812 29.8526 23.2812 29.043C23.2812 28.2333 23.9364 27.5781 24.7461 27.5781H30.6055C31.4151 27.5781 32.0703 28.2333 32.0703 29.043C32.0703 29.8526 31.4151 30.5078 30.6055 30.5078ZM44.8247 51.4448C45.3969 52.017 45.3969 52.944 44.8247 53.5162C44.5386 53.8023 44.1638 53.9454 43.7891 53.9454C43.4144 53.9454 43.0395 53.8023 42.7534 53.5162L40.8594 51.6222L38.9653 53.5162C38.6792 53.8023 38.3044 53.9454 37.9297 53.9454C37.555 53.9454 37.1801 53.8023 36.894 53.5162C36.3219 52.944 36.3219 52.017 36.894 51.4448L38.788 49.5508L36.8939 47.6567C36.3218 47.0846 36.3218 46.1575 36.8939 45.5854C37.4661 45.0132 38.3932 45.0132 38.9653 45.5854L40.8594 47.4794L42.7534 45.5854C43.3256 45.0132 44.2526 45.0132 44.8248 45.5854C45.397 46.1575 45.397 47.0846 44.8248 47.6567L42.9308 49.5508L44.8247 51.4448ZM46.2896 37.4028L41.895 41.7974C41.6089 42.0835 41.2341 42.2266 40.8594 42.2266C40.4847 42.2266 40.1098 42.0835 39.8237 41.7974L36.894 38.8677C36.3219 38.2955 36.3219 37.3685 36.894 36.7963C37.4662 36.2241 38.3933 36.2241 38.9654 36.7963L40.8594 38.6903L44.2183 35.3314C44.7904 34.7593 45.7175 34.7593 46.2896 35.3314C46.8618 35.9036 46.8618 36.8307 46.2896 37.4028ZM46.2896 28.6138L41.895 33.0083C41.6089 33.2944 41.2341 33.4375 40.8594 33.4375C40.4847 33.4375 40.1098 33.2944 39.8237 33.0083L36.894 30.0786C36.3219 29.5064 36.3219 28.5794 36.894 28.0072C37.4662 27.4351 38.3933 27.4351 38.9654 28.0072L40.8594 29.9013L44.2183 26.5424C44.7904 25.9702 45.7175 25.9702 46.2896 26.5424C46.8618 27.1146 46.8618 28.0416 46.2896 28.6138Z" fill="white"/>
</svg>
