<svg width="70" height="70" viewBox="0 0 70 70" fill="none" xmlns="http://www.w3.org/2000/svg">
<rect width="70" height="70" rx="5" fill="#EF4444"/>
<path d="M59.6339 14.1159L57.1337 11.6162C56.6462 11.1283 55.855 11.1279 55.3671 11.6154C55.3667 11.6158 55.3664 11.6158 55.3664 11.6162L40.3662 26.6159C40.132 26.8505 40 27.1683 40 27.4998V30C40 30.69 40.5596 31.2497 41.2501 31.2497H43.7502C44.0817 31.2497 44.3995 31.118 44.6337 30.8838L59.6339 15.8837C60.1218 15.3958 60.1222 14.605 59.6346 14.1167C59.6343 14.1167 59.6339 14.1163 59.6339 14.1159Z" fill="white"/>
<path d="M43.7502 33.7499H41.25C39.1798 33.7476 37.5021 32.0699 37.4998 30.0001V27.4999C37.4975 26.5051 37.8931 25.5502 38.5984 24.8487L47.1971 16.25H16.25C12.7996 16.2538 10.0038 19.0496 10 22.5V44.9999C10.0038 48.4503 12.7996 51.2464 16.25 51.2499H27.4999V57.4999C27.4999 58.1903 28.0595 58.7499 28.75 58.7499C29.0205 58.7499 29.2837 58.6622 29.5 58.4997L39.1679 51.2499H51.2499C54.7003 51.246 57.4964 48.4499 57.4999 44.9999V21.5528L46.4014 32.6513C45.6995 33.357 44.745 33.7522 43.7502 33.7499ZM18.7502 23.7501H31.2502C31.9402 23.7501 32.4999 24.3097 32.4999 25.0002C32.4999 25.6902 31.9402 26.2499 31.2502 26.2499H18.7502C18.0597 26.2499 17.5001 25.6906 17.5001 25.0002C17.5001 24.3097 18.0597 23.7501 18.7502 23.7501ZM18.7502 31.2498H31.2502C31.9402 31.2498 32.4999 31.8094 32.4999 32.4999C32.4999 33.1903 31.9402 33.7499 31.2502 33.7499H18.7502C18.0597 33.7499 17.5001 33.1903 17.5001 32.4999C17.5001 31.8098 18.0597 31.2498 18.7502 31.2498ZM49.9998 39.9999C49.9998 40.6904 49.4402 41.25 48.7501 41.25H18.7502C18.0597 41.25 17.5001 40.6904 17.5001 39.9999C17.5001 39.3099 18.0597 38.7499 18.7502 38.7499H48.7501C49.4402 38.7499 49.9998 39.3095 49.9998 39.9999Z" fill="white"/>
</svg>
