<svg width="70" height="70" viewBox="0 0 70 70" fill="none" xmlns="http://www.w3.org/2000/svg">
<rect width="70" height="70" rx="5" fill="#1F2937"/>
<path d="M35 15.8594C35.8095 15.8594 36.4648 15.204 36.4648 14.3945V11.4648C36.4648 10.6554 35.8095 10 35 10C34.1905 10 33.5352 10.6554 33.5352 11.4648V14.3945C33.5352 15.204 34.1905 15.8594 35 15.8594Z" fill="white"/>
<path d="M41.8951 18.3599L44.8248 15.4302C45.397 14.858 45.397 13.931 44.8248 13.3588C44.2525 12.7866 43.3256 12.7866 42.7534 13.3588L39.8237 16.2885C39.2515 16.8607 39.2515 17.7877 39.8237 18.3599C40.3959 18.9321 41.3229 18.9321 41.8951 18.3599Z" fill="white"/>
<path d="M28.1049 18.3599C28.6771 18.9321 29.6041 18.9321 30.1763 18.3599C30.7485 17.7877 30.7485 16.8607 30.1763 16.2885L27.2466 13.3588C26.6744 12.7866 25.7475 12.7866 25.1752 13.3588C24.603 13.931 24.603 14.858 25.1752 15.4302L28.1049 18.3599Z" fill="white"/>
<path d="M23.1836 30.7031C23.1836 27.4717 20.5556 24.8438 17.3242 24.8438C14.0928 24.8438 11.4648 27.4717 11.4648 30.7031C11.4648 33.9346 14.0928 36.5625 17.3242 36.5625C20.5556 36.5625 23.1836 33.9346 23.1836 30.7031Z" fill="white"/>
<path d="M35 21.8164C32.5769 21.8164 30.6055 23.7878 30.6055 26.2109C30.6055 31.8643 25.9073 36.5625 20.2539 36.5625H17.3242C13.286 36.5625 10 39.8485 10 43.8867V58.5351C10 59.3446 10.6554 60 11.4648 60H23.1836C23.9919 60 24.629 59.3446 24.629 58.5367L24.6374 44.8381C33.1918 42.8224 39.3945 35.1202 39.3945 26.2109C39.3945 23.7878 37.4231 21.8164 35 21.8164Z" fill="white"/>
<path d="M58.5352 30.7031C58.5352 27.4717 55.9072 24.8438 52.6758 24.8438C49.4444 24.8438 46.8164 27.4717 46.8164 30.7031C46.8164 33.9346 49.4444 36.5625 52.6758 36.5625C55.9072 36.5625 58.5352 33.9346 58.5352 30.7031Z" fill="white"/>
<path d="M52.6759 36.5625H49.7462C46.3778 36.5625 43.3116 34.8104 41.4412 32.2942C40.5841 35.3185 39.091 38.0632 37.097 40.4134C39.4328 42.4752 42.319 44.1117 45.3623 44.8365L45.3711 58.5366C45.3711 59.3446 46.0082 59.9999 46.8165 59.9999H58.5353C59.3447 59.9999 60.0001 59.3446 60.0001 58.5351V43.8867C60.0001 39.8484 56.7141 36.5625 52.6759 36.5625Z" fill="white"/>
</svg>
