<svg width="32" height="32" viewBox="0 0 32 32" fill="none" xmlns="http://www.w3.org/2000/svg">
<rect x="0.5" y="0.5" width="31" height="31" rx="3.5" stroke="#EF4444"/>
<path d="M15.9998 17.1071C15.5003 17.1071 15.0802 16.9368 14.7395 16.5961C14.3988 16.2554 14.2284 15.8353 14.2284 15.3357V10.0214C14.2284 9.52189 14.3988 9.10176 14.7395 8.76106C15.0802 8.42035 15.5003 8.25 15.9998 8.25C16.4994 8.25 16.9195 8.42035 17.2602 8.76106C17.6009 9.10176 17.7713 9.52189 17.7713 10.0214V15.3357C17.7713 15.8353 17.6009 16.2554 17.2602 16.5961C16.9195 16.9368 16.4994 17.1071 15.9998 17.1071ZM15.557 23.75V20.6349C14.1694 20.5074 13.0105 19.94 12.0805 18.9326C11.1505 17.9252 10.6855 16.7263 10.6855 15.3357H11.5713C11.5713 16.561 12.0032 17.6055 12.8671 18.4694C13.7309 19.3332 14.7752 19.7649 15.9998 19.7643C17.2245 19.7637 18.269 19.3318 19.1335 18.4685C19.9979 17.6052 20.4296 16.561 20.4284 15.3357H21.3141C21.3141 16.7269 20.8491 17.9261 19.9191 18.9335C18.9891 19.9408 17.8303 20.5077 16.4427 20.6341V23.75H15.557ZM15.9998 16.2214C16.2508 16.2214 16.4613 16.1364 16.6313 15.9663C16.8014 15.7963 16.8861 15.5861 16.8855 15.3357V10.0214C16.8855 9.77048 16.8005 9.56027 16.6305 9.3908C16.4604 9.22133 16.2502 9.1363 15.9998 9.13571C15.7495 9.13512 15.5393 9.22015 15.3692 9.3908C15.1991 9.56145 15.1141 9.77166 15.1141 10.0214V15.3357C15.1141 15.5867 15.1991 15.7972 15.3692 15.9672C15.5393 16.1373 15.7495 16.222 15.9998 16.2214Z" fill="#EF4444"/>
</svg>
