<svg width="100" height="89" viewBox="0 0 100 89" fill="none" xmlns="http://www.w3.org/2000/svg">
<path fill-rule="evenodd" clip-rule="evenodd" d="M50.145 0.338006L52.6706 7.00293C52.7464 7.20333 52.9233 7.33191 53.1368 7.34235L60.2435 7.68949C60.7268 7.71308 60.9248 8.32323 60.5475 8.62695L55.0016 13.0932C54.835 13.2274 54.7675 13.4357 54.8235 13.6424L56.6902 20.5217C56.8171 20.9895 56.2993 21.3667 55.8943 21.101L49.9412 17.1964C49.7623 17.0791 49.5439 17.0791 49.365 17.1964L43.4118 21.1012C43.007 21.3667 42.4891 20.9897 42.616 20.5219L44.4827 13.6424C44.5387 13.4355 44.4714 13.2274 44.3045 13.0932L38.7587 8.62695C38.3814 8.32323 38.5793 7.71308 39.0627 7.68949L46.1693 7.34235C46.3831 7.33191 46.5597 7.20333 46.6356 7.00293L49.161 0.338006C49.332 -0.112669 49.9743 -0.112669 50.145 0.338006ZM83.1231 55.18C92.444 55.18 100 62.7509 100 72.09C100 81.4291 92.444 89 83.1231 89C73.8023 89 66.2464 81.4291 66.2464 72.09C66.2464 62.7507 73.8023 55.18 83.1231 55.18ZM80.9064 73.5815L77.1354 69.803C76.1581 68.8238 74.5727 68.8238 73.5952 69.803C72.6179 70.7822 72.6179 72.3708 73.5952 73.35L79.1417 78.9073C80.1189 79.8865 81.7044 79.8865 82.6817 78.9073C86.0248 75.5576 89.33 72.1702 92.6577 68.805C93.6281 67.8239 93.625 66.2404 92.6469 65.2658C91.6685 64.291 90.0839 64.2939 89.1125 65.2769L80.9064 73.5815ZM49.6533 27.1866C56.5754 27.1866 62.1869 32.8091 62.1869 39.7448C62.1869 46.6804 56.5754 52.3029 49.6533 52.3029C42.7312 52.3029 37.1197 46.6804 37.1197 39.7448C37.1197 32.8091 42.7312 27.1866 49.6533 27.1866ZM27.446 76.5558L63.4073 76.5556C63.0846 75.1186 62.9131 73.6245 62.9131 72.0898C62.9131 67.9275 64.1673 64.0589 66.3164 60.8413C61.9148 56.8337 56.0693 54.3903 49.6533 54.3903C37.7408 54.3903 27.7916 62.8099 25.4081 74.0338C25.1306 75.3397 26.1135 76.5558 27.446 76.5558ZM99.1873 29.2774L94.6894 34.8013C94.5542 34.9673 94.5312 35.185 94.6292 35.3756L97.8825 41.7159C98.1037 42.1472 97.6754 42.6237 97.2244 42.4484L90.591 39.8692C90.3917 39.7917 90.1779 39.837 90.0273 39.9892L85.0146 45.0487C84.6737 45.3927 84.0889 45.132 84.116 44.6477L84.5144 37.5298C84.5265 37.3158 84.4171 37.1263 84.2262 37.0297L77.8748 33.8165C77.4429 33.5979 77.5098 32.96 77.9775 32.8362L84.8569 31.0162C85.0635 30.9615 85.2098 30.7989 85.2425 30.587L86.3298 23.5418C86.4037 23.0625 87.03 22.9291 87.2921 23.3368L91.1454 29.33C91.2612 29.5101 91.4608 29.5993 91.6719 29.5648L98.6952 28.4238C99.1704 28.3466 99.4915 28.904 99.1873 29.2774ZM78.5358 8.22429C78.6129 7.74856 78.0566 7.42668 77.6837 7.73145L72.1706 12.2382C72.005 12.3737 71.7877 12.3966 71.5975 12.2985L65.2696 9.0388C64.8393 8.81711 64.3635 9.24629 64.5385 9.69842L67.1127 16.3446C67.19 16.5443 67.1446 16.7583 66.9929 16.9094L61.9433 21.9322C61.5998 22.2737 61.8602 22.8596 62.3433 22.8325L69.4473 22.4334C69.6608 22.4213 69.85 22.5308 69.9464 22.7221L73.1535 29.086C73.3716 29.5189 74.0083 29.4517 74.1319 28.9831L75.9483 22.0902C76.0029 21.8831 76.1652 21.7366 76.3766 21.7038L83.4081 20.6144C83.8865 20.5403 84.0196 19.9128 83.6127 19.6502L77.6314 15.7893C77.4517 15.6733 77.3629 15.4733 77.3971 15.2618L78.5358 8.22429ZM0.610761 28.4236L7.63431 29.5646C7.84535 29.5989 8.04493 29.5099 8.16077 29.3298L12.0141 23.3368C12.2762 22.9291 12.9024 23.0625 12.9764 23.5418L14.0637 30.5873C14.0964 30.7989 14.2424 30.9617 14.4493 31.0164L21.3287 32.8364C21.7966 32.9602 21.8635 33.5981 21.4316 33.8167L15.0801 37.0301C14.8893 37.1267 14.7801 37.3163 14.792 37.5302L15.1904 44.6481C15.2174 45.1322 14.6326 45.3931 14.2918 45.0491L9.27868 39.989C9.12806 39.837 8.91431 39.7915 8.71493 39.869L2.0818 42.4482C1.63076 42.6235 1.20222 42.147 1.42368 41.7157L4.67701 35.3754C4.77493 35.1848 4.75201 34.9671 4.61681 34.8011L0.118885 29.2772C-0.185281 28.9037 0.135969 28.3464 0.610761 28.4236ZM21.6224 7.73145C21.2497 7.42668 20.6935 7.74856 20.7706 8.22429L21.9093 15.2614C21.9435 15.4729 21.8547 15.6728 21.6749 15.7889L15.6935 19.6498C15.2866 19.9124 15.4197 20.5399 15.8981 20.614L22.9297 21.7034C23.141 21.7362 23.3033 21.8825 23.3581 22.0898L25.1745 28.9827C25.2981 29.4515 25.9347 29.5185 26.1529 29.0856L29.3597 22.7216C29.4562 22.5304 29.6454 22.421 29.8589 22.4329L36.9629 22.8321C37.446 22.8592 37.7064 22.2733 37.3629 21.9316L32.3133 16.909C32.1614 16.7581 32.1162 16.5439 32.1935 16.3441L34.7677 9.6978C34.9427 9.24587 34.467 8.81649 34.0366 9.03838L27.7089 12.2981C27.5187 12.396 27.3014 12.3732 27.1358 12.2378L21.6224 7.73145Z" fill="white"/>
</svg>
