<svg width="98" height="100" viewBox="0 0 98 100" fill="none" xmlns="http://www.w3.org/2000/svg">
<path d="M41.4963 30.3044C42.6927 25.1709 39.5007 20.0394 34.3667 18.8429C29.2328 17.6464 24.101 20.838 22.9046 25.9715C21.7082 31.105 24.9002 36.2364 30.0341 37.433C35.1681 38.6295 40.2999 35.4379 41.4963 30.3044Z" fill="white"/>
<path d="M49.0197 70.1067C48.7639 67.3816 46.4762 65.2971 43.7401 65.2971H25.3292C25.3373 61.816 25.8273 58.23 26.4226 54.8961C25.3568 54.2741 24.4387 53.633 23.6686 53.0195C20.0165 50.1264 18.5557 47.1782 18.3003 46.6156C17.8226 45.56 17.7857 44.3839 18.1943 43.3024C18.6037 42.2218 19.4085 41.3644 20.4628 40.8883C21.0271 40.6338 21.6245 40.5052 22.2405 40.5052C23.916 40.5052 25.4569 41.4866 26.1651 43.005C26.1676 43.0105 26.1892 43.0492 26.2223 43.1081C26.3051 43.2549 26.4497 43.4925 26.6695 43.7963C26.9903 44.2401 27.4926 44.8536 28.21 45.5201C28.4455 41.9015 26.8392 38.2939 23.8345 37.5455C20.2125 36.6422 14.9622 38.6096 12.826 44.8218C9.93878 53.3806 9.31807 58.9513 10.4152 68.3765C11.5816 74.3787 15.3372 75.6481 18.8693 75.8339C19.14 75.8768 19.4153 75.9052 19.6979 75.9052V75.9043H38.9098L40.7172 95.19C40.9734 97.938 43.2853 99.9996 45.9908 100C46.1567 100 46.3235 99.9919 46.4919 99.9762C49.4088 99.7039 51.5514 97.1179 51.2785 94.2019L49.0197 70.1067Z" fill="white"/>
<path d="M73.098 99.4676V63.8288H79.5329V59.5861H30.7107V63.8288H68.6431V99.4676H73.098Z" fill="white"/>
<path d="M23.5023 99.4676H28.1693V83.0627H29.1595V78.3957H7.46441C7.95062 66.1873 7.05074 53.9364 4.75119 41.8824C3.22339 42.1743 1.69559 42.4654 0.167358 42.7569C3.74058 61.4868 3.8424 80.7067 0.49532 99.4676H5.23613C5.57767 97.4922 5.87339 95.5117 6.14111 93.5278H23.5023V99.4676ZM6.46355 90.9821C6.77666 88.347 7.02359 85.7067 7.20603 83.0627H23.5023V90.9821H6.46355Z" fill="white"/>
<path d="M45.2457 45.9346L43.9496 47.0296L46.3298 49.8476C46.9882 49.7759 47.6543 49.6915 48.3315 49.5876L45.2457 45.9346Z" fill="white"/>
<path d="M52.2942 56.9071L52.5759 57.241H51.9174C51.3481 57.6848 50.6739 57.9818 49.9416 58.0993C48.3888 58.3458 46.8699 58.5147 45.3883 58.6199V58.6555H65.8951V57.241H53.9959L54.4639 56.8456L53.2742 55.4379C53.1427 55.7629 52.976 56.0755 52.7647 56.3666C52.6226 56.5622 52.463 56.7404 52.2942 56.9071Z" fill="white"/>
<path d="M25.9131 44.3436C25.6679 44.0038 25.5032 43.7335 25.4107 43.5698C25.3641 43.4891 25.3361 43.4348 25.3242 43.4098C25.3212 43.4043 25.3195 43.4013 25.3187 43.4C24.5342 41.7178 22.5414 40.9749 20.8464 41.7403C19.1379 42.5112 18.378 44.5214 19.1489 46.2299C19.3042 46.5702 20.6585 49.4438 24.2499 52.2894C27.8147 55.1307 33.6336 57.8134 42.0821 57.8138C42.1097 57.8138 42.1364 57.8138 42.164 57.8134C44.5021 57.8134 47.0397 57.6153 49.7949 57.177C51.6452 56.8826 52.9082 55.143 52.6138 53.2928C52.3189 51.4413 50.5798 50.1791 48.7291 50.4739C46.2993 50.8596 44.1182 51.0246 42.164 51.0255C35.0621 51.0072 30.9445 48.905 28.4591 46.9644C27.2228 45.986 26.4057 45.025 25.9131 44.3436Z" fill="white"/>
<path d="M50.9505 34.366L63.7631 34.3287L63.0558 46.2083L68.8544 33.9044L96.8779 32.1386L97.8326 0L46.4961 2.75777L50.9505 34.366ZM93.3777 28.0019L53.4962 30.9718L50.8797 6.01023L94.0141 3.60631L93.3777 28.0019Z" fill="white"/>
</svg>
