<svg width="100" height="100" viewBox="0 0 100 100" fill="none" xmlns="http://www.w3.org/2000/svg">
<path d="M74.9993 75.3433C72.9885 75.3433 71.0208 75.1051 69.118 74.6722L68.5127 93.3325V93.549C68.5127 97.0992 71.4099 100 74.9993 100C78.6537 100 81.5727 96.9693 81.4645 93.3325L80.8375 74.6722C78.9564 75.1051 77.0103 75.3433 74.9993 75.3433Z" fill="white"/>
<path d="M96.6213 49.3548C96.6213 37.3848 86.9354 27.6879 75.0008 27.6879C63.0449 27.6879 53.3589 37.3848 53.3589 49.3548C53.3589 61.3033 63.0449 71.022 75.0008 71.022C86.9354 71.022 96.6213 61.3033 96.6213 49.3548ZM71.1509 58.8725C69.9949 58.8725 68.9084 58.4222 68.0922 57.6031L63.7973 53.3031C62.9526 52.4575 62.9526 51.0876 63.7973 50.242C64.6419 49.3964 66.0102 49.3964 66.8549 50.242L71.1509 54.543L83.1257 42.5543C83.9704 41.7087 85.3387 41.7087 86.1833 42.5543C87.028 43.3999 87.028 44.7698 86.1833 45.6154L74.2085 57.604C73.3913 58.4222 72.306 58.8725 71.1509 58.8725Z" fill="white"/>
<path d="M35.2057 0H4.54607C2.03918 0 0.000610352 2.04094 0.000610352 4.55074V14.461H35.2057V0ZM9.16365 9.49922H8.26477C7.00967 9.49922 5.99204 8.48042 5.99204 7.22385C5.99204 5.96729 7.00967 4.94848 8.26477 4.94848H9.16365C10.4188 4.94848 11.4364 5.96729 11.4364 7.22385C11.4364 8.48042 10.4188 9.49922 9.16365 9.49922ZM18.0515 9.49922H17.1515C15.8964 9.49922 14.8788 8.48042 14.8788 7.22385C14.8788 5.96729 15.8964 4.94848 17.1515 4.94848H18.0515C19.3066 4.94848 20.3242 5.96729 20.3242 7.22385C20.3242 8.48042 19.3066 9.49922 18.0515 9.49922ZM26.9393 9.49922H26.0393C24.7842 9.49922 23.7666 8.48042 23.7666 7.22385C23.7666 5.96729 24.7842 4.94848 26.0393 4.94848H26.9393C28.1944 4.94848 29.212 5.96729 29.212 7.22385C29.212 8.48042 28.1944 9.49922 26.9393 9.49922Z" fill="white"/>
<path d="M99.9873 4.53741C99.9873 3.28515 99.4789 2.14982 98.6585 1.32642C97.8362 0.507458 96.7043 0 95.4552 0H39.7512V14.461H99.9873V4.53741ZM89.2662 9.49922H50.4712C49.216 9.49922 48.1984 8.48042 48.1984 7.22385C48.1984 5.96729 49.216 4.94848 50.4712 4.94848H89.2662C90.5213 4.94848 91.5389 5.96729 91.5389 7.22385C91.5389 8.48042 90.5213 9.49922 89.2662 9.49922Z" fill="white"/>
<path d="M9.0918 47.5535H15.7751V54.2216H9.0918V47.5535Z" fill="white"/>
<path d="M9.0918 28.1248H15.7751V34.7929H9.0918V28.1248Z" fill="white"/>
<path d="M9.0918 66.9844H15.7751V73.6525H9.0918V66.9844Z" fill="white"/>
<path d="M85.3408 73.4051L85.659 82.7569H95.4545C97.9544 82.7569 99.9999 80.709 99.9999 78.2061V57.068C97.75 64.4174 92.3409 70.4016 85.3408 73.4051Z" fill="white"/>
<path d="M0 19.001V78.2061C0 80.709 2.04551 82.7569 4.54545 82.7569H64.3182L64.6136 73.4051C55.3182 69.3777 48.8181 60.0941 48.8181 49.3545C48.8181 34.9058 60.5681 23.1422 75 23.1422C86.75 23.1422 96.7045 30.9467 100 41.6409V19.001L0 19.001ZM27.9092 26.1457H43.3409C44.5909 26.1457 45.6137 27.1696 45.6137 28.421C45.6137 29.6725 44.5909 30.6964 43.3409 30.6964H27.9092C26.659 30.6964 25.6364 29.6725 25.6364 28.421C25.6364 27.1696 26.659 26.1457 27.9092 26.1457ZM27.9092 34.792H40.7955C42.0455 34.792 43.0682 35.816 43.0682 37.0674C43.0682 38.3188 42.0455 39.3428 40.7955 39.3428H27.9092C26.659 39.3428 25.6364 38.3188 25.6364 37.0674C25.6364 35.816 26.659 34.792 27.9092 34.792ZM27.9092 45.5773H38.6364C39.8863 45.5773 40.9091 46.6012 40.9091 47.8526C40.9091 49.1042 39.8863 50.128 38.6364 50.128H27.9092C26.659 50.128 25.6364 49.1042 25.6364 47.8526C25.6364 46.6012 26.659 45.5773 27.9092 45.5773ZM27.9092 54.2238H39.6136C40.8636 54.2238 41.8863 55.2476 41.8863 56.4992C41.8863 57.7506 40.8636 58.7745 39.6136 58.7745H27.9092C26.659 58.7745 25.6364 57.7506 25.6364 56.4992C25.6364 55.2476 26.659 54.2238 27.9092 54.2238ZM27.9092 65.009H43.3409C44.5909 65.009 45.6137 66.033 45.6137 67.2844C45.6137 68.5358 44.5909 69.5598 43.3409 69.5598H27.9092C26.659 69.5598 25.6364 68.5358 25.6364 67.2844C25.6364 66.033 26.659 65.009 27.9092 65.009ZM20.3182 73.6554C20.3182 76.1582 18.2727 78.2061 15.7727 78.2061H9.09091C6.59096 78.2061 4.54545 76.1582 4.54545 73.6554V66.9886C4.54545 64.4856 6.59096 62.4378 9.09091 62.4378H15.7727C18.2727 62.4378 20.3182 64.4856 20.3182 66.9886V73.6554ZM20.3182 54.2238C20.3182 56.7266 18.2727 58.7745 15.7727 58.7745H9.09091C6.59096 58.7745 4.54545 56.7266 4.54545 54.2238V47.5568C4.54545 45.054 6.59096 43.0061 9.09091 43.0061H15.7727C18.2727 43.0061 20.3182 45.054 20.3182 47.5568V54.2238ZM20.3182 34.792C20.3182 37.295 18.2727 39.3428 15.7727 39.3428H9.09091C6.59096 39.3428 4.54545 37.295 4.54545 34.792V28.1252C4.54545 25.6224 6.59096 23.5745 9.09091 23.5745H15.7727C18.2727 23.5745 20.3182 25.6224 20.3182 28.1252V34.792ZM51.8409 73.6554C53.0909 73.6554 54.1136 74.6793 54.1136 75.9308C54.1136 77.1822 53.0909 78.2061 51.8409 78.2061H27.9092C26.659 78.2061 25.6364 77.1822 25.6364 75.9308C25.6364 74.6793 26.659 73.6554 27.9092 73.6554H51.8409Z" fill="white"/>
</svg>

