<svg width="21" height="23" viewBox="0 0 21 23" fill="none" xmlns="http://www.w3.org/2000/svg">
<path fill-rule="evenodd" clip-rule="evenodd" d="M3.98057 1.277C3.95776 1.16349 3.89627 1.06142 3.80659 0.988193C3.71692 0.91497 3.60461 0.875137 3.48883 0.875491C3.37306 0.875845 3.261 0.916364 3.17177 0.990134C3.08254 1.0639 3.02168 1.16635 2.99957 1.28V1.282L2.99656 1.292C2.98357 1.35943 2.96856 1.42646 2.95157 1.493C2.90775 1.67232 2.85671 1.8498 2.79856 2.025C2.65356 2.459 2.45657 2.885 2.23057 3.113C2.00457 3.34 1.58056 3.54 1.14656 3.688C0.906504 3.76914 0.662129 3.83691 0.414565 3.891L0.404565 3.893C0.29048 3.91518 0.187686 3.97641 0.113854 4.06617C0.0400221 4.15593 -0.000235666 4.2686 1.03788e-06 4.38482C0.000237742 4.50104 0.0409541 4.61355 0.115151 4.70301C0.189348 4.79246 0.292391 4.85328 0.406565 4.875H0.408565L0.418565 4.878C0.485998 4.89099 0.553028 4.906 0.619565 4.923C0.756565 4.957 0.945565 5.007 1.15157 5.076C1.58557 5.221 2.01157 5.418 2.23957 5.644C2.46657 5.87 2.66657 6.294 2.81457 6.728C2.89571 6.96806 2.96348 7.21243 3.01757 7.46L3.01957 7.47C3.04175 7.58408 3.10298 7.68688 3.19274 7.76071C3.2825 7.83454 3.39517 7.8748 3.51139 7.87456C3.62761 7.87432 3.74012 7.83361 3.82958 7.75941C3.91903 7.68521 3.97985 7.58217 4.00156 7.468V7.466L4.00457 7.456C4.01756 7.38856 4.03257 7.32153 4.04956 7.255C4.08356 7.118 4.13357 6.929 4.20257 6.723C4.34757 6.289 4.54457 5.863 4.77057 5.635C4.99656 5.408 5.42057 5.208 5.85457 5.06C6.09463 4.97885 6.339 4.91108 6.58657 4.857L6.59656 4.855C6.71065 4.83281 6.81344 4.77158 6.88728 4.68182C6.96111 4.59207 7.00137 4.47939 7.00113 4.36317C7.00089 4.24695 6.96018 4.13444 6.88598 4.04498C6.81178 3.95553 6.70874 3.89471 6.59456 3.873H6.59257L6.58256 3.87C6.51513 3.857 6.4481 3.842 6.38157 3.825C6.20224 3.78118 6.02477 3.73014 5.84957 3.672C5.41557 3.527 4.98957 3.33 4.76157 3.104C4.53456 2.878 4.33457 2.454 4.18656 2.02C4.10542 1.77994 4.03765 1.53556 3.98356 1.288L3.98057 1.277ZM4.89656 4.369C4.59356 4.227 4.28957 4.044 4.05657 3.813C3.82457 3.583 3.64056 3.28 3.49656 2.978C3.35356 3.281 3.17057 3.585 2.93957 3.818C2.70957 4.05 2.40657 4.234 2.10457 4.378C2.40757 4.521 2.71156 4.704 2.94456 4.935C3.17656 5.165 3.36057 5.468 3.50457 5.77C3.64757 5.467 3.83056 5.163 4.06156 4.93C4.29156 4.698 4.59456 4.513 4.89656 4.369ZM17.5006 2.624C17.6995 2.624 17.8902 2.70301 18.0309 2.84367C18.1715 2.98432 18.2506 3.17508 18.2506 3.374V3.624H18.5006C18.6995 3.624 18.8902 3.70301 19.0309 3.84367C19.1715 3.98432 19.2506 4.17508 19.2506 4.374C19.2506 4.57291 19.1715 4.76367 19.0309 4.90433C18.8902 5.04498 18.6995 5.124 18.5006 5.124H18.2506V5.374C18.2506 5.57291 18.1715 5.76367 18.0309 5.90433C17.8902 6.04498 17.6995 6.124 17.5006 6.124C17.3017 6.124 17.1109 6.04498 16.9702 5.90433C16.8296 5.76367 16.7506 5.57291 16.7506 5.374V5.124H16.5006C16.3017 5.124 16.1109 5.04498 15.9702 4.90433C15.8296 4.76367 15.7506 4.57291 15.7506 4.374C15.7506 4.17508 15.8296 3.98432 15.9702 3.84367C16.1109 3.70301 16.3017 3.624 16.5006 3.624H16.7506V3.374C16.7506 3.17508 16.8296 2.98432 16.9702 2.84367C17.1109 2.70301 17.3017 2.624 17.5006 2.624ZM10.4886 5.554C10.1596 5.984 9.78656 6.649 9.23556 7.636L8.95756 8.136L8.90356 8.232C8.65356 8.685 8.42556 9.094 8.05856 9.372C7.68656 9.655 7.23457 9.756 6.74457 9.866L6.64057 9.889L6.10056 10.012C5.02856 10.254 4.31356 10.418 3.82556 10.61C3.35256 10.797 3.28956 10.935 3.26556 11.012C3.23856 11.098 3.21757 11.264 3.50057 11.715C3.79057 12.174 4.28056 12.75 5.00856 13.602L5.37756 14.033L5.44557 14.113C5.78357 14.506 6.08357 14.857 6.22257 15.301C6.35957 15.743 6.31357 16.205 6.26257 16.731L6.25256 16.837L6.19557 17.413C6.08557 18.548 6.01357 19.319 6.03757 19.87C6.06257 20.42 6.17757 20.532 6.23057 20.573C6.27156 20.604 6.38256 20.685 6.87456 20.543C7.37656 20.4 8.04856 20.093 9.05156 19.631L9.55756 19.398L9.65756 19.352C10.1126 19.142 10.5366 18.945 11.0006 18.945C11.4646 18.945 11.8886 19.141 12.3446 19.352L12.4436 19.398L12.9496 19.631C13.9526 20.093 14.6246 20.4 15.1266 20.544C15.6186 20.684 15.7296 20.604 15.7706 20.573C15.8236 20.533 15.9386 20.421 15.9636 19.87C15.9876 19.319 15.9156 18.548 15.8046 17.413L15.7496 16.837C15.7463 16.8013 15.7429 16.7657 15.7396 16.73C15.6876 16.205 15.6416 15.743 15.7796 15.301C15.9176 14.857 16.2176 14.506 16.5556 14.113L16.6236 14.033L16.9926 13.602C17.7216 12.75 18.2116 12.174 18.5006 11.715C18.7846 11.264 18.7626 11.098 18.7356 11.012C18.7116 10.935 18.6486 10.797 18.1756 10.61C17.6876 10.418 16.9726 10.254 15.9016 10.012L15.3606 9.889L15.2566 9.866C14.7666 9.756 14.3146 9.655 13.9426 9.373C13.5756 9.093 13.3486 8.685 13.0976 8.233L13.0436 8.136L12.7656 7.636C12.2156 6.649 11.8416 5.983 11.5126 5.554C11.1846 5.126 11.0426 5.124 11.0006 5.124C10.9576 5.124 10.8166 5.126 10.4886 5.554ZM9.29756 4.642C9.70856 4.105 10.2376 3.624 11.0006 3.624C11.7626 3.624 12.2926 4.105 12.7036 4.642C13.1076 5.169 13.5336 5.932 14.0456 6.852L14.3536 7.406C14.6926 8.013 14.7656 8.114 14.8496 8.178C14.9296 8.238 15.0326 8.278 15.6916 8.426L16.2946 8.563C17.2866 8.787 18.1176 8.975 18.7246 9.215C19.3596 9.465 19.9436 9.845 20.1676 10.567C20.3906 11.281 20.1366 11.931 19.7696 12.514C19.4146 13.077 18.8516 13.737 18.1726 14.53L17.7636 15.008C17.3186 15.529 17.2456 15.635 17.2116 15.747C17.1756 15.861 17.1746 15.998 17.2416 16.693L17.3036 17.328C17.4066 18.388 17.4916 19.266 17.4616 19.938C17.4316 20.622 17.2746 21.314 16.6776 21.768C16.0676 22.231 15.3626 22.172 14.7136 21.986C14.0866 21.806 13.3096 21.448 12.3806 21.021L11.8166 20.761C11.1966 20.476 11.0926 20.445 11.0006 20.445C10.9086 20.445 10.8046 20.475 10.1846 20.761L9.62056 21.021C8.69056 21.448 7.91456 21.806 7.28756 21.986C6.63856 22.172 5.93357 22.231 5.32357 21.768C4.72656 21.314 4.56957 20.622 4.53957 19.938C4.50956 19.266 4.59456 18.388 4.69757 17.328L4.75856 16.693C4.82656 15.998 4.82556 15.862 4.78957 15.747C4.75557 15.635 4.68257 15.529 4.23757 15.008L3.82857 14.53C3.15057 13.737 2.58657 13.077 2.23156 12.514C1.86457 11.931 1.61156 11.281 1.83356 10.567C2.05756 9.844 2.64157 9.465 3.27557 9.215C3.88357 8.975 4.71456 8.787 5.70656 8.563L6.30957 8.426C6.96856 8.277 7.07257 8.238 7.15157 8.178C7.23557 8.114 7.30857 8.013 7.64757 7.406L7.95556 6.852C8.46856 5.932 8.89356 5.169 9.29756 4.642Z" fill="black"/>
</svg>
