<svg width="84" height="100" viewBox="0 0 84 100" fill="none" xmlns="http://www.w3.org/2000/svg">
<path d="M83.4999 57.247C83.4999 48.7132 76.7386 41.6966 68.1616 41.0415V43.8516C75.0094 44.6274 80.3527 50.4889 80.3527 57.2297C80.3527 63.9705 75.0094 69.8493 68.1616 70.6079C68.1616 71.5561 68.1789 72.5043 68.127 73.4352C76.704 72.8491 83.4999 65.8152 83.4999 57.247Z" fill="white"/>
<path d="M53.1865 59.8158C52.2873 51.2821 45.232 44.4723 36.3956 43.6104C36.3956 45.1102 36.8452 47.9893 34.5108 47.9893C32.159 47.9893 32.6259 45.1102 32.6259 43.6104C23.7895 44.4723 16.7343 51.2821 15.8351 59.8158C17.3741 59.8158 20.3657 59.3503 20.3657 61.6605C20.3657 63.9706 17.3741 63.5052 15.8351 63.5052C16.7343 72.0389 23.7895 78.8486 32.6259 79.7106C32.6259 78.2108 32.1763 75.3317 34.5108 75.3317C36.8625 75.3317 36.3956 78.2108 36.3956 79.7106C45.232 78.8486 52.2873 72.0389 53.1865 63.5052C51.6475 63.5052 48.6559 63.9706 48.6559 61.6605C48.6559 59.3503 51.6475 59.8158 53.1865 59.8158ZM41.0127 72.6078C40.1135 71.7631 35.7731 66.0049 34.3379 64.1947C33.5251 63.1776 32.453 62.1949 32.2801 60.8847C32.0553 59.1435 32.1763 53.0578 32.1763 53.0578C32.1763 53.0578 32.1936 50.8511 34.1995 50.8166C36.1363 50.7821 36.0844 53.0061 36.0844 53.0061C36.0844 53.0061 36.0671 59.3848 36.0671 60.3503C38.5399 63.4707 41.0819 66.5566 43.5028 69.7287C43.8659 70.2115 44.2982 70.6252 44.3847 71.2631C44.6614 73.2112 42.275 73.7974 41.0127 72.6078Z" fill="white"/>
<path d="M4.09368 99.9329C7.03337 100.054 66.0866 99.9847 66.8821 99.9329C71.5856 99.6399 71.7239 92.7267 66.9167 92.7267C66.4152 92.7267 3.817 92.7267 3.817 92.7267C0.0472746 92.7267 -1.31882 99.7261 4.09368 99.9329Z" fill="white"/>
<path d="M64.3917 36.8005C64.3398 34.1456 62.4377 34.318 60.4145 34.318C53.463 34.318 6.28953 34.2663 5.78805 34.4732C4.62946 34.9559 4.66405 35.9558 4.64675 36.9729C4.52571 44.1792 4.64675 65.7808 4.64675 69.3839C4.64675 72.1078 4.59488 74.78 5.47679 77.4349C7.30977 83.0034 12.1516 87.3306 17.9791 88.6236C20.8497 89.2615 40.4591 89.0373 47.255 89.0373C50.3504 89.0373 53.4457 88.2098 56.0914 86.6582C61.2791 83.6068 64.3053 78.09 64.3917 72.2112C64.4263 69.9528 64.4436 39.7486 64.3917 36.8005ZM46.1656 80.3657C38.0036 85.1584 27.3343 84.3481 20.0196 78.4003C12.826 72.556 10.042 62.6603 13.3448 54.0749C16.613 45.5584 25.2246 39.8175 34.4933 39.8175C45.0416 39.8175 54.5178 47.2479 56.6102 57.4022C58.4777 66.3669 54.172 75.6764 46.1656 80.3657Z" fill="white"/>
<path d="M30.8278 14.8197C31.1218 16.2334 32.2977 17.0954 32.7127 18.4229C33.2142 20.0262 32.1766 23.0776 34.2517 23.75C36.9666 24.6292 36.8456 20.9399 36.6899 19.371C36.5516 17.8195 36.1193 16.4058 35.2201 15.1128C33.9923 13.3371 35.1682 13.2854 36.396 11.8889C37.8485 10.2339 37.7966 8.06169 36.7937 6.18255C36.3441 5.35503 35.7216 4.63096 35.393 3.75172C34.9953 2.73457 35.3238 1.33814 34.4938 0.527869C33.5427 -0.403083 31.9518 -0.041046 31.4331 1.13126C30.9489 2.20014 31.3985 3.82068 31.7962 4.87232C32.4187 6.5963 34.8224 8.49269 32.9548 10.0098C31.4331 11.2511 30.4128 12.8027 30.8278 14.8197Z" fill="white"/>
<path d="M21.9738 20.6122C22.2678 22.0259 23.4437 22.8879 23.8587 24.2153C24.3602 25.8186 23.3226 28.8701 25.3977 29.5424C28.1126 30.4217 27.9916 26.7324 27.8359 25.1635C27.6976 23.6119 27.2653 22.1983 26.3661 20.9053C25.1383 19.1296 26.3142 19.0779 27.542 17.6814C28.9945 16.0264 28.9426 13.8542 27.9397 11.975C27.4901 11.1475 26.8676 10.4234 26.539 9.5442C26.1413 8.52705 26.4698 7.13062 25.6398 6.32035C24.6887 5.3894 23.0978 5.75143 22.5791 6.92375C22.0949 7.99262 22.5445 9.61316 22.9422 10.6648C23.5647 12.3888 25.9684 14.2852 24.1008 15.8023C22.5791 17.0435 21.5588 18.6124 21.9738 20.6122Z" fill="white"/>
<path d="M39.2318 20.9398C39.5257 22.3535 40.7016 23.2155 41.1166 24.543C41.6181 26.1463 40.5806 29.1977 42.6556 29.8701C45.3705 30.7493 45.2495 27.06 45.0939 25.4912C44.9555 23.9396 44.5232 22.5259 43.624 21.2329C42.3963 19.4572 43.5721 19.4055 44.7999 18.0091C46.2524 16.354 46.2006 14.1818 45.1976 12.3027C44.748 11.4751 44.1255 10.7511 43.7969 9.87184C43.3992 8.85469 43.7278 7.45826 42.8977 6.64799C41.9467 5.71703 40.3558 6.07907 39.837 7.25138C39.3528 8.32025 39.8024 9.9408 40.2001 10.9924C40.8227 12.7164 43.2263 14.6128 41.3587 16.1299C39.8197 17.3712 38.8168 18.9228 39.2318 20.9398Z" fill="white"/>
</svg>
