<svg width="100" height="80" viewBox="0 0 100 80" fill="none" xmlns="http://www.w3.org/2000/svg">
<path d="M58.1292 70.3959H36.1725C35.2509 70.3959 34.5059 71.1413 34.5059 72.0598C34.5059 72.9782 35.2509 73.7237 36.1725 73.7237H58.1292C59.0509 73.7237 59.7959 72.9782 59.7959 72.0598C59.7959 71.1413 59.0509 70.3959 58.1292 70.3959Z" fill="white"/>
<path d="M98.3333 19.7837H93.7333C93.3333 18.4359 92.7833 17.1381 92.1167 15.9068L95.3667 12.6456C95.6833 12.3295 95.8667 11.9135 95.8667 11.4642C95.8667 11.0316 95.6833 10.599 95.3667 10.2995L89.6833 4.60898C89.0333 3.96007 87.9833 3.96007 87.3333 4.60898L84.0667 7.87022C82.8333 7.18802 81.5167 6.65557 80.1833 6.25624V1.66389C80.1833 0.732113 79.4333 0 78.5167 0H70.4667C69.55 0 68.8 0.732113 68.8 1.66389V6.25624C67.45 6.65557 66.15 7.18802 64.9167 7.87022L61.65 4.60898C61 3.96007 59.95 3.96007 59.3 4.60898L53.6 10.2995C53.4167 10.4825 53.2667 10.7155 53.2 10.9817H12.8333C8.68333 10.9817 5.31667 14.3594 5.31667 18.5025V64.9584H1.66667C0.75 64.9584 0 65.6905 0 66.6223V70.1331C0 75.574 4.43333 80 9.9 80H84.4C89.8667 80 94.3 75.574 94.3 70.1331V66.6223C94.3 65.6905 93.55 64.9584 92.6333 64.9584H88.9833V46.7055C89.25 46.6389 89.4833 46.5058 89.6833 46.3062L95.3667 40.6323C95.6833 40.3161 95.8667 39.9002 95.8667 39.4509C95.8667 39.0183 95.6833 38.5857 95.3667 38.2862L92.1167 35.025C92.7833 33.7937 93.3333 32.4792 93.7333 31.1481H98.3333C99.25 31.1481 100 30.3993 100 29.4842V21.4476C100 20.5324 99.25 19.7837 98.3333 19.7837ZM90.9667 70.1331C90.9667 73.7438 88.0167 76.6722 84.4 76.6722H9.9C6.28333 76.6722 3.33333 73.7438 3.33333 70.1331V68.2862H90.9667V70.1331ZM96.6667 27.8203H92.4333C91.65 27.8203 90.9833 28.3527 90.8167 29.1181C90.4 30.9817 89.65 32.7621 88.6167 34.3927C88.2 35.0582 88.2833 35.9235 88.8333 36.4725L91.8333 39.4509L88.5 42.7787C88.4833 42.7454 88.45 42.7288 88.4167 42.6955L85.5167 39.7837C84.95 39.2346 84.1 39.1514 83.4333 39.5674C81.8 40.599 80.0167 41.3478 78.15 41.7637C77.3833 41.9301 76.85 42.5957 76.85 43.3777V47.604H72.1333V43.3777C72.1333 42.5957 71.6 41.9301 70.8333 41.7637C68.9667 41.3478 67.1833 40.599 65.5333 39.5674C64.8833 39.1514 64.0167 39.2346 63.4667 39.7837L60.4667 42.7787L57.1333 39.4509L60.1333 36.4725C60.6833 35.9235 60.7833 35.0582 60.3667 34.3927C59.3167 32.7621 58.5833 30.9817 58.1667 29.1181C58 28.3527 57.3167 27.8203 56.5333 27.8203H52.3167V23.1115H56.5333C57.3167 23.1115 58 22.579 58.1667 21.8136C58.5833 19.9334 59.3167 18.1697 60.3667 16.5225C60.7833 15.8735 60.6833 15.0083 60.1333 14.4592L57.2167 11.5474C57.2 11.5141 57.1667 11.4975 57.15 11.4642L60.4667 8.13644L63.4667 11.1314C64.0167 11.6805 64.8833 11.7804 65.5333 11.3644C67.1833 10.3161 68.95 9.58403 70.8333 9.16805C71.6 9.00166 72.1333 8.31947 72.1333 7.53744V3.32779H76.85V7.53744C76.85 8.31947 77.3833 9.00166 78.15 9.16805C80.0167 9.58403 81.8 10.3161 83.4333 11.3644C84.1 11.7804 84.95 11.6805 85.5167 11.1314L88.5 8.13644L91.8333 11.4642L88.8333 14.4592C88.2833 15.0083 88.2 15.8735 88.6167 16.5225C89.65 18.1697 90.4 19.9334 90.8167 21.8136C90.9833 22.579 91.65 23.1115 92.4333 23.1115H96.6667V27.8203Z" fill="white"/>
<path d="M74.4829 14.2266C68.2829 14.2266 63.2329 19.2682 63.2329 25.4578C63.2329 31.6475 68.2829 36.6891 74.4829 36.6891C80.6829 36.6891 85.7329 31.6475 85.7329 25.4578C85.7329 19.2682 80.6829 14.2266 74.4829 14.2266Z" fill="white"/>
</svg>

