<svg width="48" height="48" viewBox="0 0 48 48" fill="none" xmlns="http://www.w3.org/2000/svg">
<rect width="48" height="48" rx="10" fill="white"/>
<path d="M45.3315 14.112C45.3312 13.3048 45.1587 12.5917 44.81 11.9797C44.4675 11.3777 43.9543 10.8733 43.2663 10.4743C37.5862 7.196 31.9005 3.92767 26.2223 0.646001C24.6915 -0.238499 23.2072 -0.206333 21.6877 0.691001C19.4268 2.02567 8.10749 8.517 4.73449 10.4725C3.34549 11.2775 2.66949 12.5093 2.66916 14.1105C2.66699 20.7035 2.66916 27.2962 2.66699 33.8893C2.66733 34.6787 2.83249 35.378 3.16583 35.981C3.50849 36.601 4.02866 37.1193 4.73266 37.5273C8.10583 39.4828 19.4267 45.9737 21.687 47.3087C23.2072 48.2065 24.6915 48.2385 26.2228 47.3537C31.9012 44.0719 37.5872 40.8037 43.2682 37.5253C43.9722 37.1175 44.4923 36.5989 44.835 35.9793C45.1678 35.3763 45.3333 34.677 45.3337 33.8875C45.3337 33.8875 45.3337 20.7052 45.3315 14.112Z" fill="#A9B9CB"/>
<path d="M26.1838 0.689318C24.6555 -0.193016 23.1737 -0.160849 21.6567 0.734151C19.3995 2.06532 8.09866 8.53982 4.73116 10.4903C3.34433 11.2932 2.66949 12.5218 2.66916 14.1188C2.66699 20.6947 2.66916 27.2703 2.66699 33.8463C2.66733 34.6337 2.83216 35.3312 3.16499 35.9325C3.50716 36.551 4.02649 37.068 4.72933 37.4748C5.84844 38.1218 6.96838 38.7674 8.08916 39.4115L39.2712 8.22949C34.9082 5.71715 30.544 3.20682 26.1838 0.689318Z" fill="#7F8B99"/>
<path d="M28.4094 20.9947L35.0492 21.0415C35.0492 18.275 32.2489 11.5 24.2204 11.5C19.1052 11.5 12.2285 14.752 12.2285 24.1017C12.2285 33.4513 18.9697 36.5 24.2204 36.5C32.7232 36.5 34.7554 30.6163 34.7554 27.2913L28.4209 26.9292C28.4209 26.9292 28.5904 30.775 24.1865 30.775C20.1215 30.775 19.4432 25.7953 19.4432 24.1017C19.4432 21.5272 20.3587 17.3943 24.1865 17.3943C28.0145 17.3943 28.4094 20.9947 28.4094 20.9947Z" fill="white"/>
</svg>
