<svg width="44" height="48" viewBox="0 0 44 48" fill="none" xmlns="http://www.w3.org/2000/svg">
<path d="M43.3311 14.112C43.3308 13.3048 43.1583 12.5917 42.8096 11.9797C42.4671 11.3777 41.954 10.8733 41.266 10.4743C35.5858 7.196 29.9001 3.92767 24.222 0.646001C22.6911 -0.238499 21.2068 -0.206333 19.6873 0.691001C17.4265 2.02567 6.10713 8.517 2.73413 10.4725C1.34513 11.2775 0.669126 12.5093 0.668793 14.1105C0.666626 20.7035 0.668793 27.2962 0.666626 33.8893C0.666959 34.6787 0.832126 35.378 1.16546 35.981C1.50813 36.601 2.02829 37.1193 2.73229 37.5273C6.10546 39.4828 17.4263 45.9737 19.6866 47.3087C21.2068 48.2065 22.6911 48.2385 24.2225 47.3537C29.9008 44.0719 35.5868 40.8037 41.2678 37.5253C41.9718 37.1175 42.492 36.5989 42.8346 35.9793C43.1675 35.3763 43.333 34.677 43.3333 33.8875C43.3333 33.8875 43.3333 20.7052 43.3311 14.112Z" fill="#A9B9CB"/>
<path d="M24.1835 0.689318C22.6551 -0.193016 21.1733 -0.160849 19.6563 0.734151C17.3991 2.06532 6.09829 8.53982 2.73079 10.4903C1.34396 11.2932 0.669126 12.5218 0.668793 14.1188C0.666626 20.6947 0.668793 27.2703 0.666626 33.8463C0.666959 34.6337 0.831793 35.3312 1.16463 35.9325C1.50679 36.551 2.02613 37.068 2.72896 37.4748C3.84807 38.1218 4.96802 38.7674 6.08879 39.4115L37.2708 8.22949C32.9078 5.71715 28.5436 3.20682 24.1835 0.689318Z" fill="#7F8B99"/>
<path d="M26.4092 20.9947L33.0491 21.0415C33.0491 18.275 30.2487 11.5 22.2202 11.5C17.1051 11.5 10.2284 14.752 10.2284 24.1017C10.2284 33.4513 16.9696 36.5 22.2202 36.5C30.7231 36.5 32.7552 30.6163 32.7552 27.2913L26.4207 26.9292C26.4207 26.9292 26.5902 30.775 22.1864 30.775C18.1214 30.775 17.4431 25.7953 17.4431 24.1017C17.4431 21.5272 18.3586 17.3943 22.1864 17.3943C26.0144 17.3943 26.4092 20.9947 26.4092 20.9947Z" fill="white"/>
</svg>
