<svg width="410" height="356" viewBox="0 0 410 356" fill="none" xmlns="http://www.w3.org/2000/svg">
<mask id="mask0_97_2804" style="mask-type:luminance" maskUnits="userSpaceOnUse" x="-1" y="0" width="411" height="356">
<path d="M410 0H-0.00482178V356H410V0Z" fill="white"/>
</mask>
<g mask="url(#mask0_97_2804)">
<g opacity="0.2">
<path opacity="0.2" d="M311.097 40.5371H102.023V256.969H311.097V40.5371Z" fill="#D9FAFF"/>
<path opacity="0.2" d="M189.825 44.8281L157.58 146.301H139.243L171.49 44.8281H189.825Z" fill="white"/>
<path opacity="0.2" d="M161.519 44.8281L129.273 146.301H118.657L150.901 44.8281H161.519Z" fill="white"/>
<path opacity="0.2" d="M298.348 43.9092L266.1 145.382H247.765L280.013 43.9092H298.348Z" fill="white"/>
<path opacity="0.2" d="M270.04 43.9092L237.796 145.382H227.18L259.424 43.9092H270.04Z" fill="white"/>
<path opacity="0.2" d="M298.348 152.739L266.1 254.21H247.765L280.013 152.739H298.348Z" fill="white"/>
<path opacity="0.2" d="M270.04 152.739L237.796 254.21H227.18L259.424 152.739H270.04Z" fill="white"/>
<path opacity="0.2" d="M189.825 152.739L157.58 254.21H139.243L171.49 152.739H189.825Z" fill="white"/>
<path opacity="0.2" d="M161.519 152.739L129.273 254.21H118.657L150.901 152.739H161.519Z" fill="white"/>
<path opacity="0.2" d="M210.239 257.499V44.6064C210.239 43.7137 209.516 42.9902 208.623 42.9902H204.191C203.298 42.9902 202.575 43.7137 202.575 44.6064V257.499C202.575 258.392 203.298 259.115 204.191 259.115H208.623C209.516 259.115 210.239 258.392 210.239 257.499Z" fill="#E2B38E"/>
<path opacity="0.2" d="M98.3462 43.9936V256.886C98.3462 257.779 99.0696 258.502 99.9623 258.502H104.395C105.287 258.502 106.011 257.779 106.011 256.886V43.9936C106.011 43.1011 105.287 42.3774 104.395 42.3774H99.9623C99.0696 42.3774 98.3462 43.1011 98.3462 43.9936Z" fill="#E2B38E"/>
<path opacity="0.2" d="M307.419 43.9936V256.886C307.419 257.779 308.142 258.502 309.035 258.502H313.467C314.36 258.502 315.083 257.779 315.083 256.886V43.9936C315.083 43.1011 314.36 42.3774 313.467 42.3774H309.035C308.142 42.3774 307.419 43.1011 307.419 43.9936Z" fill="#E2B38E"/>
<path opacity="0.2" d="M208.316 260.125H203.884C203.187 260.125 202.52 259.848 202.027 259.355C201.534 258.862 201.258 258.196 201.258 257.499V44.6062C201.258 43.9096 201.534 43.2416 202.027 42.7491C202.52 42.2565 203.187 41.98 203.884 41.98H208.316C209.013 41.98 209.68 42.2565 210.173 42.7491C210.666 43.2416 210.942 43.9096 210.942 44.6062V257.499C210.942 258.196 210.666 258.862 210.173 259.355C209.68 259.848 209.013 260.125 208.316 260.125ZM203.886 44.0001C203.724 44.0001 203.571 44.064 203.458 44.1775C203.345 44.2912 203.28 44.4454 203.28 44.6062V257.499C203.28 257.658 203.345 257.814 203.458 257.927C203.571 258.04 203.724 258.105 203.886 258.105H208.318C208.48 258.105 208.633 258.04 208.746 257.927C208.86 257.814 208.924 257.658 208.924 257.499V44.6062C208.924 44.4454 208.86 44.2912 208.746 44.1775C208.633 44.064 208.48 44.0001 208.318 44.0001H203.886Z" fill="#385868"/>
<path opacity="0.2" d="M104.086 259.513H99.6554C98.9588 259.513 98.2908 259.236 97.7982 258.743C97.3057 258.25 97.0292 257.584 97.0292 256.887V43.9939C97.0292 43.2975 97.3057 42.6295 97.7982 42.137C98.2908 41.6444 98.9588 41.3677 99.6554 41.3677H104.088C104.784 41.3677 105.452 41.6444 105.945 42.137C106.437 42.6295 106.714 43.2975 106.714 43.9939V256.887C106.714 257.232 106.646 257.573 106.514 257.891C106.381 258.21 106.188 258.501 105.944 258.743C105.7 258.988 105.41 259.182 105.091 259.313C104.772 259.444 104.431 259.513 104.086 259.513ZM99.6554 43.3878C99.4946 43.3878 99.3404 43.4517 99.2267 43.5654C99.1132 43.6791 99.0493 43.8333 99.0493 43.9939V256.887C99.0493 257.046 99.1132 257.202 99.2267 257.315C99.3404 257.428 99.4946 257.493 99.6554 257.493H104.088C104.248 257.493 104.402 257.428 104.516 257.315C104.63 257.202 104.694 257.046 104.694 256.887V43.9939C104.694 43.8333 104.63 43.6791 104.516 43.5654C104.402 43.4517 104.248 43.3878 104.088 43.3878H99.6554Z" fill="#385868"/>
<path opacity="0.2" d="M313.16 259.513H308.728C308.031 259.513 307.364 259.236 306.871 258.743C306.378 258.25 306.102 257.584 306.102 256.887V43.9939C306.102 43.2975 306.378 42.6295 306.871 42.137C307.364 41.6444 308.031 41.3677 308.728 41.3677H313.16C313.857 41.3677 314.524 41.6444 315.017 42.137C315.509 42.6295 315.786 43.2975 315.786 43.9939V256.887C315.786 257.584 315.509 258.25 315.017 258.743C314.524 259.236 313.857 259.513 313.16 259.513ZM308.728 43.3878C308.566 43.3878 308.413 43.4517 308.299 43.5654C308.186 43.6791 308.122 43.8333 308.122 43.9939V256.887C308.122 257.046 308.186 257.202 308.299 257.315C308.413 257.428 308.566 257.493 308.728 257.493H313.16C313.322 257.493 313.475 257.428 313.588 257.315C313.701 257.202 313.766 257.046 313.766 256.887V43.9939C313.766 43.8333 313.701 43.6791 313.588 43.5654C313.475 43.4517 313.322 43.3878 313.16 43.3878H308.728Z" fill="#385868"/>
<path opacity="0.2" d="M315.306 36.5513H98.7409C97.8484 36.5513 97.1248 37.2747 97.1248 38.1674V42.5996C97.1248 43.4921 97.8484 44.2157 98.7409 44.2157H315.306C316.199 44.2157 316.922 43.4921 316.922 42.5996V38.1674C316.922 37.2747 316.199 36.5513 315.306 36.5513Z" fill="#E2B38E"/>
<path opacity="0.2" d="M314.994 45.2261H98.4331C97.7366 45.2261 97.0685 44.9494 96.576 44.4569C96.0835 43.9643 95.8069 43.2963 95.8069 42.5999V38.1677C95.8069 37.4712 96.0835 36.8031 96.576 36.3106C97.0685 35.8181 97.7366 35.5415 98.4331 35.5415H314.994C315.691 35.5415 316.357 35.8181 316.85 36.3106C317.343 36.8031 317.62 37.4712 317.62 38.1677V42.5999C317.62 43.2963 317.343 43.9643 316.85 44.4569C316.357 44.9494 315.691 45.2261 314.994 45.2261ZM98.4331 37.5617C98.2723 37.5617 98.1182 37.6255 98.0045 37.739C97.8909 37.8528 97.8271 38.0069 97.8271 38.1677V42.5999C97.8271 42.7605 97.8909 42.9147 98.0045 43.0284C98.1182 43.1419 98.2723 43.206 98.4331 43.206H314.994C315.155 43.206 315.309 43.1419 315.422 43.0284C315.535 42.9147 315.6 42.7605 315.6 42.5999V38.1677C315.6 38.0069 315.535 37.8528 315.422 37.739C315.309 37.6255 315.155 37.5617 314.994 37.5617H98.4331Z" fill="#385868"/>
<path opacity="0.2" d="M315.306 252.984H98.7409C97.8484 252.984 97.1248 253.707 97.1248 254.6V259.032C97.1248 259.925 97.8484 260.648 98.7409 260.648H315.306C316.199 260.648 316.922 259.925 316.922 259.032V254.6C316.922 253.707 316.199 252.984 315.306 252.984Z" fill="#E2B38E"/>
<path opacity="0.2" d="M314.994 261.658H98.4334C97.7368 261.658 97.0688 261.381 96.5763 260.888C96.0838 260.395 95.8072 259.726 95.8072 259.032V254.599C95.8072 253.902 96.0838 253.234 96.5763 252.741C97.0688 252.25 97.7368 251.973 98.4334 251.973H314.994C315.691 251.973 316.358 252.25 316.851 252.741C317.344 253.234 317.62 253.902 317.62 254.599V259.032C317.62 259.726 317.344 260.395 316.851 260.888C316.358 261.381 315.691 261.658 314.994 261.658ZM98.4334 253.993C98.2726 253.993 98.1184 254.056 98.0047 254.171C97.8912 254.284 97.8273 254.438 97.8273 254.599V259.032C97.8273 259.191 97.8912 259.347 98.0047 259.46C98.1184 259.573 98.2726 259.638 98.4334 259.638H314.994C315.156 259.638 315.309 259.573 315.422 259.46C315.536 259.347 315.6 259.191 315.6 259.032V254.599C315.6 254.438 315.536 254.284 315.422 254.171C315.309 254.056 315.156 253.993 314.994 253.993H98.4334Z" fill="#385868"/>
<path opacity="0.2" d="M315.306 145.687H98.7409C97.8484 145.687 97.1248 146.41 97.1248 147.303V151.735C97.1248 152.627 97.8484 153.351 98.7409 153.351H315.306C316.199 153.351 316.922 152.627 316.922 151.735V147.303C316.922 146.41 316.199 145.687 315.306 145.687Z" fill="#E2B38E"/>
<path opacity="0.2" d="M314.994 154.361H98.4334C97.7368 154.361 97.0688 154.085 96.5763 153.592C96.0838 153.1 95.8072 152.432 95.8072 151.735V147.303C95.8072 146.606 96.0838 145.939 96.5763 145.446C97.0688 144.954 97.7368 144.677 98.4334 144.677H314.994C315.691 144.677 316.358 144.954 316.851 145.446C317.344 145.939 317.62 146.606 317.62 147.303V151.735C317.62 152.432 317.344 153.1 316.851 153.592C316.358 154.085 315.691 154.361 314.994 154.361ZM98.4334 146.697C98.2726 146.697 98.1184 146.761 98.0047 146.874C97.8912 146.988 97.8273 147.142 97.8273 147.303V151.735C97.8273 151.896 97.8912 152.05 98.0047 152.164C98.1184 152.277 98.2726 152.341 98.4334 152.341H314.994C315.156 152.341 315.309 152.277 315.422 152.164C315.536 152.05 315.6 151.896 315.6 151.735V147.303C315.6 147.142 315.536 146.988 315.422 146.874C315.309 146.761 315.156 146.697 314.994 146.697H98.4334Z" fill="#385868"/>
</g>
<g opacity="0.2">
<path opacity="0.2" d="M30.5759 212.147V213.763H55.6259V212.147H30.5759Z" fill="#385868"/>
<path opacity="0.2" d="M63.2983 218.977L63.2904 220.593L88.3401 220.714L88.348 219.098L63.2983 218.977Z" fill="#385868"/>
<path opacity="0.2" d="M32.0539 231.418L31.9086 245.943L33.5248 245.96L33.67 231.435L32.0539 231.418Z" fill="#385868"/>
<path opacity="0.2" d="M66.1068 205.425L65.9615 219.95L67.5777 219.966L67.7229 205.441L66.1068 205.425Z" fill="#385868"/>
<path opacity="0.2" d="M43.84 225.126H75.308C77.401 225.126 79.0978 223.429 79.0978 221.336V217.724C79.0978 215.632 77.401 213.935 75.308 213.935H43.84C41.7469 213.935 40.0502 215.632 40.0502 217.724V221.336C40.0502 223.429 41.7469 225.126 43.84 225.126Z" fill="#F2F2F2"/>
<path opacity="0.2" d="M75.3077 225.936H43.8316C42.6127 225.934 41.444 225.449 40.5822 224.586C39.7202 223.726 39.2354 222.556 39.2338 221.338V217.728C39.2342 216.508 39.7188 215.338 40.5808 214.475C41.4428 213.613 42.6119 213.128 43.8316 213.126H75.3077C76.5267 213.128 77.6951 213.613 78.5571 214.475C79.4189 215.336 79.9039 216.506 79.9056 217.724V221.334C79.905 222.554 79.4205 223.724 78.5585 224.586C77.6965 225.449 76.5273 225.934 75.3077 225.936ZM43.8316 214.742C43.0412 214.744 42.2834 215.057 41.7244 215.617C41.1654 216.176 40.8509 216.934 40.8499 217.724V221.334C40.8499 222.126 41.1638 222.883 41.723 223.443C42.282 224.005 43.0403 224.318 43.8316 224.32H75.3077C76.0982 224.318 76.8559 224.005 77.4149 223.445C77.9739 222.885 78.2882 222.128 78.2894 221.338V217.728C78.2894 216.936 77.9753 216.178 77.4163 215.619C76.8571 215.057 76.0988 214.744 75.3077 214.742H43.8316Z" fill="#385868"/>
<path opacity="0.2" d="M16.9801 236.318H48.4481C50.5411 236.318 52.2379 234.621 52.2379 232.528V228.916C52.2379 226.823 50.5411 225.126 48.4481 225.126H16.9801C14.887 225.126 13.1902 226.823 13.1902 228.916V232.528C13.1902 234.621 14.887 236.318 16.9801 236.318Z" fill="#F2F2F2"/>
<path opacity="0.2" d="M48.4478 237.128H16.9818C16.3772 237.126 15.7786 237.007 15.2203 236.774C14.6619 236.544 14.1546 236.205 13.7275 235.776C13.3004 235.348 12.9617 234.841 12.7308 234.281C12.4999 233.722 12.3814 233.124 12.3819 232.52V228.91C12.3835 227.69 12.8684 226.522 13.7304 225.659C14.5923 224.799 15.7608 224.314 16.9798 224.312H48.4478C49.6667 224.314 50.8352 224.799 51.6972 225.659C52.559 226.522 53.044 227.69 53.0457 228.91V232.52C53.0467 233.74 52.563 234.912 51.7006 235.774C50.8384 236.639 49.6684 237.126 48.4478 237.128ZM16.9818 225.936C16.1913 225.936 15.4335 226.251 14.8746 226.811C14.3156 227.369 14.0011 228.126 14 228.918V232.52C14.0011 233.31 14.3156 234.067 14.8746 234.627C15.4335 235.187 16.1913 235.5 16.9818 235.502H48.4478C49.2383 235.5 49.996 235.187 50.555 234.627C51.114 234.067 51.4285 233.31 51.4295 232.52V228.91C51.4285 228.118 51.114 227.36 50.555 226.803C49.996 226.243 49.2383 225.928 48.4478 225.928L16.9818 225.936Z" fill="#385868"/>
</g>
<g opacity="0.2">
<path opacity="0.2" d="M18.2471 45.0566V46.6728H43.2971V45.0566H18.2471Z" fill="#385868"/>
<path opacity="0.2" d="M50.9117 51.0645L50.9036 52.6806L75.9534 52.803L75.9612 51.1869L50.9117 51.0645Z" fill="#385868"/>
<path opacity="0.2" d="M19.6364 63.2271L19.4911 77.752L21.1072 77.7681L21.2525 63.2432L19.6364 63.2271Z" fill="#385868"/>
<path opacity="0.2" d="M53.6922 37.2368L53.547 51.7617L55.1631 51.7779L55.3084 37.253L53.6922 37.2368Z" fill="#385868"/>
<path opacity="0.2" d="M31.4532 57.2229H62.9212C65.0143 57.2229 66.711 55.5262 66.711 53.4331V49.8211C66.711 47.728 65.0143 46.0312 62.9212 46.0312H31.4532C29.3601 46.0312 27.6634 47.728 27.6634 49.8211V53.4331C27.6634 55.5262 29.3601 57.2229 31.4532 57.2229Z" fill="#F2F2F2"/>
<path opacity="0.2" d="M62.919 58.0284H31.455C30.2371 58.0254 29.0702 57.5398 28.2095 56.678C27.3489 55.8162 26.8648 54.6485 26.8632 53.4306V49.8205C26.8648 48.6016 27.3497 47.4331 28.2117 46.5711C29.0737 45.7093 30.2421 45.2243 31.4611 45.2227H62.919C64.1379 45.2243 65.3064 45.7093 66.1684 46.5711C67.0304 47.4331 67.5152 48.6016 67.5168 49.8205V53.4306C67.5152 54.6495 67.0304 55.8182 66.1684 56.68C65.3064 57.542 64.1379 58.0268 62.919 58.0284ZM31.453 46.8368C30.6635 46.84 29.9076 47.1557 29.3502 47.7149C28.7931 48.2741 28.48 49.0313 28.4793 49.8205V53.4306C28.4804 54.221 28.7949 54.979 29.3539 55.5378C29.9128 56.0968 30.6706 56.4113 31.4611 56.4123H62.919C63.7095 56.4113 64.4672 56.0968 65.0262 55.5378C65.5852 54.979 65.8997 54.221 65.9007 53.4306V49.8205C65.8997 49.03 65.5852 48.2723 65.0262 47.7133C64.4672 47.1543 63.7095 46.84 62.919 46.8388L31.453 46.8368Z" fill="#385868"/>
<path opacity="0.2" d="M4.59272 68.4119H36.0607C38.1538 68.4119 39.8505 66.7152 39.8505 64.6221V61.01C39.8505 58.9171 38.1538 57.2202 36.0607 57.2202H4.59272C2.49968 57.2202 0.802917 58.9171 0.802917 61.01V64.6221C0.802917 66.7152 2.49968 68.4119 4.59272 68.4119Z" fill="#F2F2F2"/>
<path opacity="0.2" d="M36.059 69.222H4.59305C3.37377 69.2204 2.20491 68.7353 1.34292 67.8729C0.480943 67.0105 -0.00375281 65.8415 -0.00482178 64.6221V61.008C-0.00321826 59.7891 0.481715 58.6206 1.34364 57.7586C2.20555 56.8968 3.37411 56.4118 4.59305 56.4102H36.059C37.2784 56.4114 38.4474 56.896 39.3096 57.758C40.172 58.62 40.6573 59.7889 40.6589 61.008V64.6181C40.6589 65.8384 40.1745 67.0089 39.3119 67.8721C38.4493 68.7355 37.2794 69.221 36.059 69.222ZM4.59305 58.0283C3.80293 58.0295 3.04543 58.3436 2.48654 58.9022C1.92763 59.4606 1.61291 60.2179 1.6113 61.008V64.6181C1.61237 65.4085 1.92686 66.1663 2.48581 66.7253C3.04477 67.2843 3.80257 67.5988 4.59305 67.5998H36.059C36.8495 67.5988 37.6073 67.2843 38.1662 66.7253C38.7252 66.1663 39.0397 65.4085 39.0408 64.6181V61.008C39.0397 60.2175 38.7252 59.4598 38.1662 58.9008C37.6073 58.3418 36.8495 58.0275 36.059 58.0263L4.59305 58.0283Z" fill="#385868"/>
</g>
<g opacity="0.2">
<path opacity="0.2" d="M352.452 219.769L352.444 221.385L377.496 221.506L377.502 219.89L352.452 219.769Z" fill="#385868"/>
<path opacity="0.2" d="M384.958 225.611L384.95 227.227L410.002 227.349L410.01 225.733L384.958 225.611Z" fill="#385868"/>
<path opacity="0.2" d="M354.254 238.055L354.108 252.58L355.725 252.596L355.87 238.071L354.254 238.055Z" fill="#385868"/>
<path opacity="0.2" d="M388.305 212.066L388.162 226.591L389.778 226.607L389.922 212.082L388.305 212.066Z" fill="#385868"/>
<path opacity="0.2" d="M365.494 231.762H396.962C399.055 231.762 400.752 230.066 400.752 227.973V224.361C400.752 222.268 399.055 220.571 396.962 220.571H365.494C363.401 220.571 361.704 222.268 361.704 224.361V227.973C361.704 230.066 363.401 231.762 365.494 231.762Z" fill="#F2F2F2"/>
<path opacity="0.2" d="M396.956 232.572H365.496C364.278 232.57 363.108 232.086 362.246 231.223C361.385 230.362 360.9 229.193 360.898 227.974V224.364C360.9 223.144 361.385 221.977 362.246 221.114C363.108 220.253 364.278 219.769 365.496 219.767H396.956C398.174 219.769 399.344 220.253 400.204 221.114C401.067 221.977 401.552 223.144 401.554 224.364V227.974C401.552 229.193 401.067 230.362 400.204 231.223C399.344 232.086 398.174 232.57 396.956 232.572ZM365.49 221.381C364.7 221.381 363.943 221.696 363.383 222.255C362.823 222.813 362.51 223.571 362.508 224.362V227.972C362.51 228.762 362.823 229.52 363.383 230.08C363.943 230.639 364.7 230.952 365.49 230.954H396.956C397.746 230.952 398.503 230.639 399.063 230.08C399.623 229.52 399.936 228.762 399.938 227.972V224.362C399.936 223.571 399.623 222.813 399.063 222.255C398.503 221.696 397.746 221.381 396.956 221.381H365.49Z" fill="#385868"/>
<path opacity="0.2" d="M338.634 242.956H370.102C372.195 242.956 373.892 241.259 373.892 239.167V235.554C373.892 233.462 372.195 231.765 370.102 231.765H338.634C336.541 231.765 334.844 233.462 334.844 235.554V239.167C334.844 241.259 336.541 242.956 338.634 242.956Z" fill="#F2F2F2"/>
<path opacity="0.2" d="M370.1 243.764H338.634C337.416 243.762 336.246 243.277 335.383 242.415C334.523 241.554 334.038 240.384 334.036 239.166V235.55C334.038 234.33 334.523 233.162 335.383 232.3C336.246 231.439 337.416 230.954 338.634 230.952H370.1C371.318 230.954 372.488 231.439 373.35 232.3C374.211 233.162 374.696 234.33 374.698 235.55V239.16C374.698 240.38 374.213 241.55 373.352 242.412C372.49 243.277 371.32 243.762 370.1 243.764ZM338.634 232.572C337.844 232.572 337.086 232.887 336.527 233.447C335.967 234.005 335.654 234.764 335.652 235.554V239.164C335.654 239.954 335.967 240.712 336.527 241.271C337.086 241.831 337.844 242.144 338.634 242.146H370.1C370.89 242.144 371.647 241.831 372.207 241.271C372.766 240.712 373.079 239.954 373.082 239.164V235.55C373.079 234.76 372.766 234.001 372.207 233.443C371.647 232.883 370.89 232.568 370.1 232.568L338.634 232.572Z" fill="#385868"/>
</g>
<g opacity="0.2">
<path opacity="0.2" d="M352.454 8.05615L352.445 9.67226L377.497 9.79468L377.506 8.17857L352.454 8.05615Z" fill="#385868"/>
<path opacity="0.2" d="M384.956 13.8989L384.95 15.515L410 15.6375L410.008 14.0213L384.956 13.8989Z" fill="#385868"/>
<path opacity="0.2" d="M354.243 25.9868L354.098 40.5117L355.714 40.5279L355.86 26.003L354.243 25.9868Z" fill="#385868"/>
<path opacity="0.2" d="M388.298 -0.00341797L388.154 14.5215L389.771 14.5377L389.914 0.0127433L388.298 -0.00341797Z" fill="#385868"/>
<path opacity="0.2" d="M365.494 20.0569H396.962C399.055 20.0569 400.752 18.3601 400.752 16.2671V12.655C400.752 10.562 399.055 8.86523 396.962 8.86523H365.494C363.401 8.86523 361.704 10.562 361.704 12.655V16.2671C361.704 18.3601 363.401 20.0569 365.494 20.0569Z" fill="#F2F2F2"/>
<path opacity="0.2" d="M396.956 20.865H365.496C364.278 20.8634 363.108 20.3783 362.246 19.5165C361.385 18.6545 360.9 17.486 360.898 16.267V12.655C360.9 11.4361 361.385 10.2675 362.246 9.40558C363.108 8.54366 364.278 8.05875 365.496 8.05713H396.956C398.174 8.05875 399.344 8.54366 400.204 9.40558C401.067 10.2675 401.552 11.4361 401.554 12.655V16.265C401.552 17.4843 401.069 18.6534 400.206 19.5158C399.344 20.3781 398.176 20.8634 396.956 20.865ZM365.49 9.67325C364.7 9.67432 363.943 9.98882 363.383 10.5478C362.823 11.1067 362.51 11.8645 362.508 12.655V16.265C362.51 17.0555 362.823 17.8133 363.383 18.3723C363.943 18.9312 364.7 19.2457 365.49 19.2468H396.956C397.746 19.2457 398.503 18.9312 399.063 18.3723C399.623 17.8133 399.936 17.0555 399.938 16.265V12.655C399.938 11.8642 399.623 11.1059 399.063 10.5465C398.505 9.98709 397.746 9.6723 396.956 9.67123L365.49 9.67325Z" fill="#385868"/>
<path opacity="0.2" d="M338.634 31.2469H370.102C372.195 31.2469 373.892 29.5502 373.892 27.4571V23.845C373.892 21.752 372.195 20.0552 370.102 20.0552H338.634C336.541 20.0552 334.844 21.752 334.844 23.845V27.4571C334.844 29.5502 336.541 31.2469 338.634 31.2469Z" fill="#F2F2F2"/>
<path opacity="0.2" d="M370.1 32.0566H338.634C337.416 32.055 336.246 31.5701 335.383 30.7081C334.523 29.8463 334.038 28.6777 334.036 27.4587V23.8366C334.038 22.6176 334.523 21.4492 335.383 20.5872C336.246 19.7253 337.416 19.2404 338.634 19.2388H370.1C371.32 19.2398 372.488 19.7245 373.35 20.5866C374.213 21.4486 374.698 22.6174 374.7 23.8366V27.4466C374.7 28.0514 374.582 28.6504 374.352 29.2094C374.12 29.7684 373.783 30.2764 373.354 30.7047C372.928 31.1328 372.421 31.4726 371.861 31.7045C371.304 31.9364 370.704 32.0562 370.1 32.0566ZM338.634 20.8649C337.846 20.8661 337.088 21.1791 336.531 21.736C335.971 22.2928 335.656 23.0479 335.652 23.8366V27.4466C335.654 28.2371 335.967 28.9949 336.527 29.5538C337.086 30.1128 337.844 30.4273 338.634 30.4284H370.1C370.89 30.4273 371.647 30.1128 372.207 29.5538C372.766 28.9949 373.079 28.2371 373.082 27.4466V23.8366C373.079 23.0461 372.766 22.2883 372.207 21.7294C371.647 21.1704 370.89 20.856 370.1 20.8548L338.634 20.8649Z" fill="#385868"/>
</g>
<path d="M338.529 353.979H63.1817V356H338.529V353.979Z" fill="#385868"/>
<path d="M369.437 353.979H344.185V356H369.437V353.979Z" fill="#385868"/>
<path d="M58.9393 353.979H41.364V356H58.9393V353.979Z" fill="#385868"/>
<path d="M226.388 193.405V203.429C226.388 206.086 227.443 208.633 229.322 210.512C231.2 212.39 233.75 213.447 236.406 213.447H248.63C254.139 213.447 259.422 215.635 263.317 219.53C267.212 223.424 269.4 228.707 269.4 234.216V291.534H160.618V234.216C160.619 228.707 162.807 223.427 166.702 219.532C170.597 215.637 175.879 213.449 181.387 213.449H193.611C194.927 213.449 196.23 213.188 197.445 212.685C198.66 212.182 199.765 211.443 200.695 210.514C201.625 209.582 202.363 208.477 202.866 207.263C203.369 206.047 203.627 204.744 203.627 203.429V193.405" fill="#FFC6AD"/>
<path d="M268.563 234.842V292.162H160.618V234.842C160.619 229.333 162.807 224.053 166.702 220.158C170.597 216.263 175.879 214.075 181.387 214.075H187.199C187.747 219.281 191.405 224.22 195.939 226.832C200.543 229.485 205.952 230.396 211.259 230.636C218.065 230.946 225.035 230.188 231.259 227.416C237.168 224.79 242.37 220.004 244.942 214.083H247.794C253.301 214.083 258.582 216.269 262.476 220.162C266.371 224.055 268.561 229.335 268.563 234.842Z" fill="#82F0B7"/>
<path d="M268.145 234.842V244.656C268.145 239.147 265.957 233.865 262.062 229.97C258.167 226.075 252.884 223.887 247.375 223.887H244.523C241.945 229.816 236.749 234.594 230.84 237.22C224.616 239.992 217.647 240.749 210.841 240.44C205.534 240.2 200.124 239.287 195.52 236.636C190.985 234.024 187.326 229.085 186.781 223.879H180.969C178.24 223.879 175.538 224.414 173.017 225.459C170.496 226.503 168.205 228.032 166.276 229.964C164.346 231.893 162.816 234.184 161.773 236.705C160.729 239.226 160.192 241.927 160.193 244.656V234.842C160.194 232.115 160.731 229.414 161.776 226.893C162.82 224.374 164.35 222.083 166.279 220.156C168.209 218.227 170.499 216.697 173.019 215.655C175.54 214.611 178.241 214.075 180.969 214.075H186.781C187.328 219.281 190.987 224.22 195.52 226.832C200.124 229.485 205.534 230.396 210.841 230.636C217.647 230.946 224.616 230.188 230.84 227.416C236.749 224.79 241.951 220.004 244.523 214.083H247.375C252.882 214.083 258.163 216.269 262.058 220.162C265.953 224.055 268.142 229.335 268.145 234.842Z" fill="#BEF8D9"/>
<path d="M225.97 194.865V202.483L225.788 202.528C218.394 204.293 210.728 204.617 203.211 203.479V194.865H225.97Z" fill="#E39493"/>
<path d="M224.339 193.405C224.339 196.793 224.279 200.185 224.339 203.571C224.37 205.27 224.782 206.94 225.543 208.457C226.307 209.977 227.402 211.302 228.747 212.34C230.879 213.979 233.394 214.659 236.058 214.659C239.933 214.659 243.808 214.643 247.682 214.659C254.04 214.686 260.139 217.72 263.795 222.97C266.318 226.592 267.345 230.716 267.345 235.091V284.403C267.345 286.652 267.167 288.985 267.345 291.229C267.345 291.332 267.345 291.431 267.345 291.544L268.557 290.332H164.195C162.822 290.332 161.339 290.173 159.969 290.332C159.907 290.336 159.844 290.336 159.781 290.332L160.993 291.544V236.317C160.993 233.217 161.153 230.225 162.26 227.265C164.616 220.97 170.288 216.294 176.856 215.007C178.777 214.631 180.708 214.661 182.653 214.661H189.841C191.605 214.661 193.413 214.768 195.148 214.407C196.785 214.051 198.321 213.334 199.646 212.31C200.971 211.284 202.049 209.977 202.805 208.482C203.863 206.346 204.005 204.148 204.005 201.825V193.405C204.005 191.846 201.58 191.844 201.58 193.405C201.58 196.793 201.641 200.185 201.58 203.571C201.544 205.201 201.061 206.791 200.184 208.165C199.306 209.54 198.068 210.647 196.605 211.367C194.758 212.278 192.819 212.235 190.829 212.235H183.759C182.043 212.235 180.302 212.166 178.591 212.328C175.202 212.649 171.931 213.744 169.033 215.532C166.135 217.318 163.686 219.746 161.876 222.631C159.521 226.409 158.577 230.675 158.577 235.083V271.63C158.577 278.153 158.424 284.698 158.577 291.225C158.577 291.33 158.577 291.427 158.577 291.54C158.582 291.86 158.711 292.167 158.937 292.393C159.164 292.619 159.469 292.748 159.789 292.753H255.195C259.581 292.753 263.997 292.91 268.381 292.753C268.443 292.753 268.506 292.753 268.569 292.753C268.888 292.748 269.195 292.619 269.421 292.393C269.647 292.167 269.777 291.86 269.781 291.54V236.317C269.781 233.192 269.643 230.126 268.609 227.126C267.5 223.93 265.676 221.029 263.276 218.645C260.876 216.259 257.965 214.455 254.763 213.364C250.282 211.853 245.442 212.237 240.783 212.237C239.066 212.237 237.349 212.255 235.63 212.237C234.143 212.237 232.681 211.865 231.376 211.156C230.071 210.447 228.964 209.421 228.155 208.175C226.897 206.189 226.772 204.086 226.772 201.827V193.405C226.772 191.846 224.347 191.844 224.347 193.405H224.339Z" fill="#385868"/>
<path d="M200.55 75.8516C201.988 79.8919 206.342 82.0332 210.41 83.3807C217.754 85.8079 225.454 86.9804 233.188 86.8493C238.711 86.7523 244.298 85.9968 249.71 87.1321C255.122 88.2674 260.488 91.8754 261.629 97.2794" fill="#EF7679"/>
<path d="M195.29 58.2546C206.358 50.0367 219.772 44.2974 233.552 44.7196C247.331 45.1418 261.307 52.5538 267.228 65.002C275.209 81.7693 267.866 102.47 265.254 119.768C262.361 138.981 262.808 158.549 266.571 177.61C268.31 186.395 270.834 195.235 275.529 202.936C276.654 204.783 278.787 206.684 279.607 208.617C280.652 211.079 279.809 211.162 276.922 211.968C272.626 213.166 267.959 212.641 263.589 212.322C258.729 211.968 253.82 211.556 249.186 210.055C241.509 207.568 233.63 200.686 234.97 191.785" fill="#EF7679"/>
<path d="M277.548 211.964C273.252 213.162 268.585 212.637 264.215 212.32C259.355 211.964 254.446 211.554 249.812 210.053C242.135 207.564 234.257 200.684 235.594 191.783L233.101 183.43C237.293 191.308 245.329 197.219 254.07 199.635C260.791 201.494 267.823 201.557 274.73 200.443C275.181 201.286 275.658 202.118 276.157 202.938C277.282 204.785 279.415 206.684 280.233 208.617C281.28 211.078 280.437 211.158 277.548 211.964Z" fill="#DB6A72"/>
<path d="M185.042 110.097C196.694 108.885 193.835 94.0028 198.375 83.203C201.28 76.29 202.263 67.769 197.847 61.7065C191.423 52.8865 178.547 50.9148 168.735 54.4239C155.345 59.2116 152.862 73.4133 152.323 86.1282C151.814 98.1057 154.487 109.92 157.695 121.38C159.575 128.077 160.737 134.945 161.759 141.814C163.917 156.329 165.44 171.308 161.874 185.54C158.309 199.772 148.725 213.289 134.774 217.839C146.289 219.647 158.523 218.897 168.878 213.556C179.234 208.215 187.336 197.74 187.823 186.098" fill="#EF7679"/>
<path d="M167.415 207.51C159.917 211.378 151.43 212.835 142.949 212.661C140.021 214.819 136.769 216.5 133.313 217.639C144.828 219.447 157.062 218.698 167.418 213.356C177.773 208.015 185.876 197.54 186.363 185.898L186.217 181.898C185.001 192.793 177.221 202.453 167.415 207.51Z" fill="#DB6A72"/>
<path d="M247.709 86.3613C250.561 91.3592 252.129 96.9368 252.06 103.343C251.963 112.464 248.699 121.538 250.242 130.397C250.691 132.964 251.527 135.362 252.171 137.847C255.99 152.554 252.537 169.905 244.818 181.198C237.099 192.49 225.707 198.011 214.562 197.999H214.489C203.344 198.011 191.953 192.49 184.234 181.198C176.515 169.905 173.062 152.554 176.88 137.847C177.525 135.362 178.361 132.966 178.809 130.397C180.355 121.536 177.09 112.462 176.991 103.343C176.925 96.9388 178.49 90.5248 181.343 85.527L188.589 74.3959L209.259 68.3354L221.986 70.8404" fill="#FFC6AD"/>
<path d="M244.822 174.725C237.103 186.017 225.711 191.538 214.566 191.526H214.494C203.348 191.538 191.957 186.017 184.238 174.725C179.119 167.234 175.878 157.076 175.389 146.796C174.783 158.848 178.218 171.345 184.238 180.155C191.957 191.447 203.348 196.969 214.494 196.956H214.566C225.711 196.969 237.103 191.447 244.822 180.155C250.844 171.345 254.268 158.848 253.67 146.798C253.182 157.076 249.941 167.234 244.822 174.725Z" fill="#E39493"/>
<path d="M250.208 91.9505C250.181 91.9505 250.153 91.9384 250.127 91.9324C249.723 91.8461 249.315 91.7707 248.901 91.7061C243.877 90.9081 238.711 91.5606 233.604 91.6495C224.42 91.8091 208.352 91.5687 202.712 82.8558C208.188 91.3021 182.361 105.667 177.056 108.558L176.652 104.772C176.609 104.368 176.575 103.948 176.791 103.615C176.993 103.36 177.262 103.167 177.567 103.055C186.753 98.7201 193.441 92.4556 197.552 82.9952C197.579 82.9326 197.605 82.8699 197.629 82.8073C197.746 82.5245 197.861 82.2396 197.969 81.9508L197.987 81.9063C198.975 79.5672 199.687 77.1212 200.11 74.6176L201.383 78.9044C201.441 78.2983 201.478 77.6801 201.492 77.0741V77.0196C201.504 76.361 201.492 75.7065 201.441 75.056C201.339 73.4958 201.034 71.9554 200.534 70.4743V69.5228L204.73 68.2925C204.419 70.0258 203.829 71.854 204.481 73.4903C205.211 75.3206 207.225 76.2378 209.077 76.9125C218.746 80.4298 228.974 82.151 239.261 81.9912C240.174 81.977 241.089 81.9467 242.006 81.9144L247.297 85.1083C247.384 85.2618 247.472 85.4194 247.557 85.5769L247.478 85.5648C247.594 85.7668 247.705 85.9688 247.814 86.1709C248.794 88.0165 249.596 89.952 250.208 91.9505Z" fill="#E39493"/>
<path d="M200.966 76.4782C202.404 80.5185 206.758 82.6599 210.826 84.0073C218.17 86.4333 225.871 87.6046 233.604 87.4719C239.127 87.3749 244.715 86.6194 250.127 87.7547C255.539 88.8901 260.904 92.4981 262.045 97.902L266.264 66.0401L200.911 62.6987L200.966 76.4782Z" fill="#EF7679"/>
<path d="M270.662 213.732C268.698 213.732 266.731 213.58 264.803 213.431L263.515 213.334C258.22 212.948 253.464 212.508 248.873 211.021C244.63 209.649 240.652 207.09 237.937 203.997C234.685 200.294 233.311 196.019 233.968 191.639L235.966 191.938C235.253 196.706 237.469 200.403 239.455 202.663C241.937 205.492 245.596 207.837 249.495 209.1C253.87 210.514 258.501 210.944 263.662 211.322L264.959 211.421C268.89 211.724 272.955 212.027 276.662 211.003L277.096 210.883C277.916 210.657 278.844 210.401 279.037 210.209C279.037 210.14 279.037 209.853 278.688 209.021C278.268 208.031 277.385 206.964 276.53 205.932C275.856 205.156 275.236 204.334 274.676 203.473C272.129 199.296 268.413 192.09 265.585 177.817C261.781 158.647 261.333 138.961 264.26 119.637C264.832 115.845 265.614 111.978 266.44 107.881C269.379 93.3263 272.417 78.2761 266.319 65.4582C263.577 59.6947 258.913 54.7797 252.832 51.2444C246.945 47.8536 240.315 45.9579 233.525 45.7233C217.906 45.2466 204.435 52.7191 195.896 59.0563L194.684 57.4402C203.49 50.903 217.384 43.2163 233.58 43.7032C240.707 43.9157 247.671 45.897 253.842 49.4687C260.276 53.21 265.22 58.4281 268.139 64.5613C271.005 70.5854 272.191 77.6276 271.775 86.0921C271.405 93.4899 269.888 100.997 268.424 108.257C267.601 112.328 266.826 116.172 266.26 119.914C263.367 139.01 263.81 158.463 267.569 177.407C270.333 191.364 273.931 198.358 276.399 202.405C276.91 203.183 277.472 203.926 278.084 204.627C279.031 205.77 280.009 206.954 280.545 208.215C280.949 209.184 281.278 210.201 280.856 211.073C280.381 212.055 279.286 212.358 277.623 212.815L277.195 212.934C275.056 213.53 272.862 213.732 270.662 213.732Z" fill="#385868"/>
<path d="M214.607 199.139H214.453C202.211 199.139 190.896 192.857 183.406 181.897C175.183 169.871 172.171 152.116 175.907 137.725C176.123 136.888 176.363 136.056 176.598 135.25C177.094 133.642 177.502 132.008 177.82 130.355C178.721 125.194 177.945 120.006 177.123 114.515C176.585 110.917 176.028 107.196 175.99 103.485C175.919 96.8549 177.513 90.354 180.474 85.1582L182.23 86.1683C179.482 90.9803 177.945 97.2791 178.012 103.473C178.05 107.045 178.596 110.695 179.123 114.226C179.931 119.636 180.769 125.228 179.812 130.713C179.481 132.437 179.057 134.142 178.541 135.82C178.313 136.612 178.076 137.436 177.866 138.244C174.268 152.106 177.165 169.197 185.076 180.77C192.185 191.17 202.894 197.133 214.457 197.133H214.609C226.176 197.133 236.883 191.172 243.992 180.77C251.903 169.197 254.802 152.106 251.202 138.244C251 137.436 250.756 136.614 250.527 135.82C250.012 134.142 249.588 132.437 249.257 130.713C248.299 125.23 249.137 119.636 249.945 114.226C250.473 110.695 251.02 107.045 251.057 103.473C251.119 97.4751 249.739 92.0873 246.836 87.0046L248.592 85.9946C251.677 91.3985 253.143 97.1195 253.077 103.487C253.038 107.198 252.481 110.919 251.943 114.517C251.121 120.008 250.345 125.196 251.246 130.357C251.564 132.01 251.972 133.644 252.469 135.252C252.701 136.06 252.941 136.89 253.159 137.727C256.897 152.12 253.883 169.873 245.663 181.901C238.172 192.857 226.859 199.139 214.607 199.139Z" fill="#385868"/>
<path d="M197.97 84.2393C193.843 94.0572 185.502 102.643 175.262 105.025C174.341 105.24 173.409 105.403 172.47 105.512C168.809 101.788 162.201 94.2997 162.504 89.0028C162.923 81.6959 175.231 70.0032 178.163 65.8276C179.506 63.9084 181.07 58.949 182.369 54.145C182.674 54.1915 182.975 54.244 183.28 54.2985C188.867 55.3409 194.053 58.0884 197.443 62.7428C201.849 68.8134 200.869 77.3344 197.97 84.2393Z" fill="#EF7679"/>
<path d="M145.764 219.738C142.031 219.727 138.305 219.428 134.619 218.845L130.461 218.192L134.463 216.887C146.905 212.829 157.034 200.725 160.897 185.303C164.547 170.726 162.741 155.292 160.762 141.971C159.788 135.422 158.626 128.436 156.721 121.652C153.608 110.501 150.794 98.4831 151.319 86.0854C151.851 73.5604 154.275 58.5244 168.4 53.472C173.662 51.6211 179.336 51.2715 184.785 52.4619C190.692 53.7649 195.492 56.7568 198.67 61.1183C200.86 64.1263 201.936 67.8394 201.872 72.1564C201.817 75.7927 200.93 79.7462 199.312 83.6006C196.974 89.2181 193.375 94.2224 188.793 98.2266C183.945 102.41 178.367 104.931 172.654 105.523L172.452 103.513C182.806 102.442 192.619 94.3196 197.456 82.8188C198.977 79.2007 199.807 75.5038 199.86 72.1282C199.918 68.2575 198.971 64.9546 197.046 62.3082C194.165 58.3527 189.773 55.6295 184.359 54.4296C179.278 53.3205 173.988 53.6478 169.083 55.375C163.273 57.4517 159.208 61.4799 156.653 67.6858C154.127 73.8231 153.552 81.1744 153.34 86.1723C152.824 98.2932 155.6 110.123 158.675 121.109C160.602 127.992 161.778 135.06 162.76 141.674C164.768 155.189 166.598 170.857 162.857 185.794C159.22 200.339 150.168 212.077 138.786 217.352C147.336 218.235 158.404 217.833 168.416 212.667C179.147 207.132 186.369 196.689 186.816 186.065L188.836 186.15C188.361 197.487 180.711 208.6 169.345 214.463C161.552 218.481 153.184 219.738 145.764 219.738Z" fill="#385868"/>
<path d="M260.642 97.4854C259.493 92.0573 253.923 89.0473 249.503 88.118C245.622 87.3099 241.509 87.5018 237.532 87.6937C236.117 87.7624 234.651 87.8331 233.206 87.8574C225.358 87.9968 217.542 86.8069 210.092 84.3383C204.3 82.4211 200.868 79.7566 199.587 76.191L201.49 75.5122C202.553 78.494 205.484 80.6899 210.718 82.4211C217.952 84.8179 225.54 85.9736 233.16 85.8392C234.574 85.815 236.023 85.7443 237.422 85.6776C241.527 85.4756 245.772 85.2736 249.907 86.1443C252.812 86.7431 255.541 87.9988 257.887 89.8149C260.394 91.8088 262.026 94.3178 262.608 97.0693L260.642 97.4854Z" fill="#385868"/>
<path d="M195.185 119.701C195.241 117.628 196.866 115.903 198.983 115.903C201.1 115.903 202.726 117.628 202.781 119.701C202.823 121.259 205.247 121.265 205.205 119.701C205.114 116.319 202.435 113.479 198.983 113.479C195.53 113.479 192.852 116.321 192.761 119.701C192.718 121.261 195.142 121.261 195.185 119.701Z" fill="#385868"/>
<path d="M224.206 119.701C224.263 117.628 225.887 115.903 228.004 115.903C230.121 115.903 231.747 117.628 231.802 119.701C231.844 121.259 234.268 121.265 234.226 119.701C234.135 116.319 231.456 113.479 228.004 113.479C224.552 113.479 221.873 116.321 221.782 119.701C221.739 121.261 224.164 121.261 224.206 119.701Z" fill="#385868"/>
<path d="M217.293 141.832C217.236 143.905 215.612 145.63 213.495 145.63C211.378 145.63 209.752 143.905 209.697 141.832C209.655 140.275 207.231 140.268 207.273 141.832C207.364 145.214 210.043 148.054 213.495 148.054C216.948 148.054 219.626 145.212 219.717 141.832C219.76 140.272 217.335 140.272 217.293 141.832Z" fill="#385868"/>
<path d="M266.84 77.3227C266.508 73.1248 264.706 69.1491 262.284 65.7048C256.224 57.0787 246.192 51.5637 235.727 50.2667C225.263 48.9698 214.481 51.7253 205.465 57.1918C204.884 57.5454 204.271 57.9514 204.025 58.5878C203.714 59.3958 204.084 60.2807 204.387 61.0887C205.389 63.7874 205.649 66.7052 205.144 69.539C204.831 71.2743 204.241 73.1066 204.894 74.745C205.623 76.5752 207.637 77.4944 209.49 78.1691C219.158 81.6854 229.386 83.406 239.673 83.2458C244.545 83.167 249.493 82.6741 254.238 83.7751C258.983 84.8761 263.638 88.0033 264.902 92.7102C265.664 92.1848 266.282 91.4797 266.704 90.6575C267.129 89.8353 267.341 88.9216 267.327 87.9972" fill="#DB6A72"/>
<path d="M156.48 101.651C154.082 92.0101 154.347 81.8988 157.248 72.397C158.46 68.4557 160.207 64.5184 163.286 61.7811C166.365 59.0438 170.462 57.761 174.543 57.3569C177.686 57.0478 180.916 57.2337 183.896 58.2781C191.738 61.0255 196.639 69.8072 195.861 78.0757C195.083 86.3442 189.263 93.6935 181.809 97.3581C177.819 99.3196 173.419 100.334 169.415 102.267C165.411 104.2 161.63 107.39 160.684 111.735" fill="#DB6A72"/>
<path d="M252.331 54.1512C253.593 55.0384 254.793 56.0131 255.921 57.0683C256.961 58.0588 257.939 59.111 258.852 60.2197C260.381 62.1035 261.694 64.155 262.761 66.3347C263.211 67.264 263.569 68.1266 263.858 68.8922C263.995 69.2781 264.122 69.6357 264.233 69.969L264.5 70.8902L264.605 71.2821L264.68 71.6316C264.724 71.8498 264.757 72.0356 264.779 72.1851C264.823 72.4861 264.821 72.6518 264.779 72.6659C264.736 72.68 264.629 72.5467 264.49 72.278C264.421 72.1447 264.341 71.977 264.252 71.777L264.11 71.4558L263.941 71.0922L263.555 70.2377L263.072 69.2276C262.718 68.5125 262.3 67.7084 261.803 66.8418C260.638 64.8158 259.286 62.9037 257.763 61.1308C256.858 60.0971 255.898 59.1121 254.89 58.1794C253.801 57.1875 252.65 56.2651 251.444 55.4178C250.234 54.5687 248.971 53.7956 247.666 53.1027L247.195 52.8461L246.721 52.6098C246.406 52.4563 246.097 52.2926 245.783 52.1472C245.155 51.8643 244.545 51.5734 243.931 51.3391C242.779 50.8668 241.606 50.4529 240.414 50.0987L239.582 49.8745C239.309 49.7997 239.042 49.723 238.773 49.6725C238.242 49.5634 237.737 49.426 237.246 49.3594C236.755 49.2927 236.291 49.1836 235.844 49.1573L235.196 49.0846L234.885 49.0482L234.584 49.0341L233.481 48.9735C233.143 48.9735 232.832 48.9735 232.551 48.9735H232.147L231.8 48.9937C231.584 49.0038 231.396 49.0099 231.248 49.0078C230.947 49.0078 230.782 48.9796 230.772 48.927C230.762 48.8745 230.905 48.7977 231.194 48.7008C231.339 48.6523 231.519 48.5978 231.735 48.5392L232.085 48.4462L232.489 48.3796C232.774 48.3339 233.093 48.2867 233.444 48.2382C233.796 48.2099 234.178 48.1917 234.592 48.1695L234.907 48.1533H235.232L235.913 48.1695C236.384 48.1695 236.872 48.2321 237.39 48.2786C237.907 48.325 238.442 48.422 239.006 48.5048C239.287 48.5432 239.569 48.6079 239.856 48.6705L240.735 48.8624C241.994 49.1751 243.234 49.5624 244.448 50.022C245.095 50.2523 245.735 50.5371 246.395 50.8179C246.723 50.9613 247.048 51.123 247.379 51.2785L247.876 51.5169L248.369 51.7755C249.743 52.4754 251.066 53.2692 252.331 54.1512Z" fill="white"/>
<path d="M246.03 116.348C245.727 119.281 245.852 121.928 246.192 123.811C246.355 124.754 246.555 125.505 246.672 126.033C246.79 126.56 246.848 126.881 246.751 126.93C246.654 126.978 246.432 126.746 246.117 126.267C245.703 125.574 245.371 124.835 245.129 124.065C244.483 122.122 244.171 119.255 244.489 116.187C244.634 114.757 244.862 113.336 245.169 111.932C245.444 110.645 245.731 109.508 245.977 108.55C246.489 106.645 246.856 105.476 247.068 105.506C247.28 105.536 247.291 106.785 247.052 108.756C246.937 109.742 246.759 110.906 246.567 112.191C246.375 113.475 246.167 114.884 246.03 116.348Z" fill="white"/>
<path d="M247.06 93.3968C247.456 94.3998 247.674 95.4643 247.705 96.5422C247.705 97.3685 247.565 97.8796 247.357 97.9038C247.149 97.928 246.903 97.4675 246.628 96.7402C246.353 96.0129 246.022 95.019 245.618 93.9584C245.416 93.4292 245.198 92.9322 245.002 92.4777L244.452 91.2656C244.135 90.5706 243.953 90.0919 244.117 89.9464C244.281 89.801 244.759 90.0434 245.349 90.6393C245.691 90.9908 245.994 91.3767 246.254 91.7908C246.573 92.2997 246.842 92.8375 247.06 93.3968Z" fill="white"/>
<path d="M156.355 98.5831C156.127 96.074 156.06 93.5533 156.153 91.0358C156.23 89.8762 156.278 88.7732 156.418 87.751C156.48 87.2379 156.525 86.7409 156.6 86.2682L156.83 84.9086C156.959 84.04 157.161 83.2703 157.313 82.5915C157.393 82.2521 157.462 81.935 157.539 81.6481L157.773 80.8663C158.058 79.9269 158.23 79.4158 158.264 79.4259C158.298 79.436 158.191 79.9673 157.967 80.9168L157.777 81.7067C157.715 81.9976 157.662 82.3127 157.595 82.6541C157.47 83.3349 157.296 84.1046 157.191 84.9692L156.989 86.3227C156.927 86.7934 156.892 87.2884 156.84 87.7954C156.719 88.8055 156.688 89.9065 156.624 91.056C156.559 93.5501 156.64 96.0458 156.864 98.5305C157.117 101.177 157.529 103.678 157.971 105.938L158.321 107.587C158.375 107.856 158.434 108.116 158.5 108.373L158.684 109.132C158.808 109.629 158.915 110.114 159.04 110.573L159.397 111.894C159.614 112.74 159.852 113.492 160.044 114.158L160.315 115.086L160.557 115.861C160.844 116.795 160.987 117.318 160.961 117.33C160.935 117.342 160.721 116.841 160.375 115.916L160.09 115.152C159.989 114.872 159.888 114.565 159.777 114.235C159.559 113.575 159.296 112.821 159.056 111.985L158.666 110.666C158.531 110.207 158.414 109.722 158.28 109.225L158.078 108.464C158.01 108.207 157.945 107.944 157.876 107.676L157.505 106.023C156.987 103.566 156.603 101.082 156.355 98.5831Z" fill="#516D7B"/>
<path d="M158.506 87.8903C158.694 86.5295 158.958 85.1807 159.298 83.85C159.466 83.244 159.622 82.6561 159.801 82.1228C159.89 81.8561 159.967 81.5935 160.056 81.3491L160.317 80.644C160.476 80.1935 160.654 79.7976 160.801 79.4461C160.876 79.2723 160.945 79.1087 161.003 78.9612L161.205 78.5572C161.444 78.0784 161.591 77.8219 161.624 77.836C161.7 77.8703 161.246 78.9572 160.658 80.7612L160.432 81.4703C160.353 81.7167 160.286 81.9773 160.207 82.244C160.046 82.7773 159.908 83.3551 159.755 83.9631C159.472 85.1752 159.207 86.5328 159.011 87.963C158.816 89.3933 158.729 90.767 158.684 92.0175C158.684 92.6438 158.656 93.2296 158.672 93.7932C158.672 94.072 158.672 94.3407 158.686 94.6013L158.719 95.3447C158.814 97.2376 158.969 98.4073 158.886 98.4194C158.852 98.4194 158.777 98.1386 158.67 97.6113L158.585 97.1729C158.557 97.0133 158.535 96.8376 158.508 96.6497C158.458 96.274 158.389 95.8417 158.353 95.3669L158.286 94.6174C158.264 94.3568 158.258 94.0841 158.242 93.8094C158.207 93.2458 158.209 92.6438 158.205 92.0114C158.228 90.6331 158.328 89.2572 158.506 87.8903Z" fill="#516D7B"/>
<path d="M188.193 62.1434C189.656 63.591 190.928 65.2205 191.977 66.9917C192.468 67.7998 192.87 68.6079 193.233 69.3614C193.597 70.1149 193.884 70.8462 194.126 71.5169C194.517 72.5724 194.84 73.6522 195.092 74.7491C195.266 75.5269 195.324 75.9612 195.294 75.9612C195.264 75.9612 195.13 75.5572 194.89 74.7936C194.649 74.03 194.304 72.9492 193.779 71.6421C193.518 70.9876 193.199 70.2846 192.839 69.5392C192.48 68.7937 192.056 68.018 191.563 67.2301C190.512 65.5126 189.257 63.9288 187.825 62.513C187.077 61.7908 186.281 61.1206 185.442 60.507C184.658 59.9369 183.835 59.4212 182.981 58.9636L182.375 58.6485C182.173 58.5475 181.971 58.4606 181.769 58.3657C181.365 58.1637 180.971 58.0303 180.591 57.8707C180.211 57.7111 179.83 57.596 179.464 57.4829C179.098 57.3697 178.747 57.2586 178.403 57.1879C177.326 56.9178 176.227 56.7421 175.119 56.6627C174.916 56.6405 174.747 56.6324 174.595 56.6283L174.211 56.6061C174.009 56.59 173.892 56.5738 173.892 56.5576C173.892 56.5415 174.001 56.5213 174.209 56.5031L174.597 56.4748C174.773 56.4615 174.95 56.4574 175.127 56.4627C176.256 56.4655 177.383 56.5901 178.486 56.8344C178.84 56.897 179.197 57.0101 179.577 57.1031C179.957 57.196 180.339 57.3374 180.739 57.4707C181.139 57.6041 181.547 57.7616 181.951 57.9515C182.153 58.0424 182.367 58.1293 182.575 58.2303L183.203 58.5434C184.085 58.9996 184.932 59.5188 185.738 60.0969C186.605 60.7194 187.425 61.4032 188.193 62.1434Z" fill="#516D7B"/>
<path d="M190.435 69.4441C191.072 70.711 191.571 72.0425 191.924 73.4158C192.071 74.0152 192.186 74.6222 192.268 75.2339C192.302 75.5228 192.352 75.7975 192.369 76.0662L192.409 76.8399C192.435 77.2819 192.435 77.7252 192.409 78.1672C192.409 78.3692 192.397 78.545 192.383 78.7106L192.322 79.1651C192.245 79.7106 192.187 80.0055 192.15 80.0015C192.114 79.9974 192.106 79.6924 192.122 79.151L192.138 78.7005C192.138 78.5349 192.128 78.3571 192.122 78.1652C192.104 77.7813 192.122 77.343 192.053 76.8642L191.981 76.1107C191.954 75.8501 191.894 75.5814 191.851 75.3026C191.777 74.741 191.617 74.1552 191.472 73.537C190.755 70.8609 189.473 68.3692 187.712 66.2301C187.294 65.7513 186.904 65.2826 186.5 64.8927C186.298 64.6907 186.112 64.4887 185.916 64.317L185.344 63.82C184.991 63.4887 184.627 63.2443 184.334 63.012C184.181 62.8968 184.041 62.7817 183.908 62.6867L183.532 62.4382C183.082 62.1352 182.839 61.9514 182.856 61.9191C182.872 61.8867 183.149 62.012 183.635 62.2665L184.039 62.4807C184.185 62.5655 184.332 62.6685 184.498 62.7736C184.874 63.0081 185.236 63.2645 185.583 63.5413L186.189 64.0241C186.391 64.1938 186.593 64.3958 186.807 64.5917C187.258 65.0141 187.687 65.4606 188.09 65.9291C188.995 67.0137 189.781 68.1923 190.435 69.4441Z" fill="#516D7B"/>
<path d="M169.019 170.342C168.989 172.437 168.872 174.482 168.682 176.447C168.492 178.413 168.203 180.3 167.874 182.086L167.611 183.405C167.52 183.837 167.409 184.261 167.318 184.682C167.135 185.522 166.896 186.324 166.69 187.106C166.581 187.494 166.458 187.871 166.345 188.245C166.232 188.619 166.127 188.986 165.995 189.338L165.632 190.378L165.454 190.881L165.264 191.366C165.009 192.005 164.783 192.617 164.523 193.184C164.262 193.752 164.05 194.289 163.797 194.774C163.545 195.259 163.337 195.72 163.119 196.134L162.5 197.251C162.405 197.419 162.321 197.578 162.234 197.724L161.983 198.128L161.579 198.76C161.48 198.94 161.361 199.109 161.224 199.263C161.292 199.068 161.381 198.881 161.49 198.705L161.846 198.051L162.076 197.635C162.155 197.485 162.234 197.324 162.321 197.152L162.894 196.019C163.096 195.6 163.298 195.14 163.531 194.649C163.763 194.158 163.973 193.619 164.213 193.055C164.454 192.491 164.674 191.879 164.916 191.237L165.098 190.752L165.266 190.251L165.611 189.215C165.735 188.863 165.83 188.496 165.943 188.126C166.056 187.756 166.169 187.378 166.272 186.993C166.474 186.215 166.696 185.419 166.878 184.583C166.969 184.166 167.08 183.744 167.157 183.314L167.407 182.003C167.72 180.229 168.013 178.367 168.177 176.403C168.341 174.439 168.47 172.421 168.5 170.342C168.525 166.428 168.323 162.516 167.894 158.626C167.512 155.034 167.026 151.816 166.581 149.119C166.137 146.422 165.743 144.242 165.476 142.735C165.345 141.981 165.242 141.396 165.179 140.998C165.133 140.799 165.11 140.596 165.108 140.392C165.188 140.582 165.245 140.78 165.28 140.984C165.375 141.375 165.51 141.955 165.672 142.703C165.999 144.198 166.448 146.367 166.939 149.062C167.43 151.757 167.949 154.977 168.365 158.581C168.824 162.484 169.043 166.412 169.019 170.342Z" fill="#516D7B"/>
<path d="M174.22 203.026C175.343 201.358 176.315 199.593 177.125 197.753L177.63 196.496L177.753 196.193C177.791 196.092 177.822 195.991 177.856 195.888L178.058 195.282C178.183 194.888 178.325 194.515 178.424 194.145L178.7 193.078C178.902 192.404 178.989 191.773 179.104 191.226C179.157 190.951 179.214 190.697 179.252 190.46L179.339 189.812C179.448 189.032 179.525 188.6 179.559 188.6C179.593 188.6 179.585 189.04 179.539 189.832L179.496 190.492C179.472 190.733 179.428 190.991 179.389 191.27C179.31 191.905 179.199 192.535 179.056 193.159L178.807 194.248C178.717 194.626 178.583 195.008 178.466 195.41L178.278 196.016C178.246 196.119 178.218 196.218 178.179 196.327L178.06 196.638L177.567 197.941C175.998 201.732 173.651 205.151 170.676 207.977L169.654 208.898L169.408 209.12C169.325 209.193 169.236 209.258 169.151 209.322L168.648 209.726C168.315 209.981 168.008 210.242 167.687 210.462L166.759 211.086C166.229 211.444 165.681 211.775 165.117 212.076C164.87 212.213 164.644 212.347 164.428 212.456L163.822 212.732C163.099 213.062 162.695 213.227 162.679 213.195C162.662 213.163 163.04 212.936 163.729 212.555L164.303 212.239C164.505 212.118 164.727 211.973 164.963 211.835C165.432 211.532 165.988 211.229 166.547 210.793L167.442 210.151C167.751 209.926 168.048 209.66 168.371 209.401L168.858 208.997C168.939 208.928 169.026 208.864 169.107 208.795L169.345 208.571L170.337 207.648C171.767 206.225 173.066 204.68 174.22 203.026Z" fill="#516D7B"/>
<path d="M176.498 188.1C176.63 187.26 176.712 186.454 176.763 185.718C176.781 185.351 176.805 184.999 176.807 184.672C176.809 184.344 176.817 184.037 176.807 183.757C176.807 182.637 176.751 181.938 176.828 181.938C176.904 181.938 177.068 182.613 177.171 183.757C177.195 184.039 177.219 184.351 177.226 184.686C177.232 185.021 177.226 185.379 177.226 185.757C177.179 187.395 176.919 189.02 176.452 190.591C176.339 190.95 176.234 191.294 176.114 191.601C175.995 191.908 175.884 192.207 175.773 192.468C175.321 193.514 174.939 194.108 174.882 194.084C174.826 194.059 175.084 193.403 175.434 192.342C175.523 192.078 175.62 191.787 175.71 191.472C175.801 191.156 175.898 190.819 175.995 190.462C176.187 189.732 176.355 188.94 176.498 188.1Z" fill="#516D7B"/>
<path d="M220.913 81.3687C222.687 81.7709 224.481 82.0824 226.287 82.302C227.121 82.3868 227.913 82.4798 228.661 82.5181C229.032 82.5404 229.392 82.5747 229.739 82.5868L230.735 82.6212C231.37 82.6535 231.948 82.6393 232.451 82.6454H233.156L233.747 82.6313C234.461 82.6191 234.857 82.6313 234.859 82.6636C234.861 82.6959 234.471 82.7565 233.758 82.8313L233.166 82.8898C232.949 82.906 232.713 82.9161 232.459 82.9282C231.952 82.9505 231.372 82.9909 230.731 82.9808H229.721C229.372 82.9808 229.008 82.9545 228.632 82.9404C227.879 82.9202 227.077 82.8414 226.232 82.7686C222.568 82.3977 218.964 81.5614 215.511 80.2798C214.722 79.9727 213.966 79.6899 213.289 79.3768C212.946 79.2233 212.609 79.0839 212.293 78.9324L211.39 78.4899C210.811 78.2172 210.31 77.9243 209.863 77.6819C209.641 77.5587 209.433 77.4455 209.245 77.3344L208.738 77.0193C208.132 76.6395 207.807 76.4132 207.825 76.3829C207.843 76.3526 208.203 76.5183 208.835 76.8435L209.36 77.1162L209.994 77.4233C210.451 77.6415 210.96 77.9081 211.544 78.1566L212.453 78.5607C212.77 78.7021 213.108 78.8293 213.451 78.9647C214.138 79.2596 214.889 79.5243 215.673 79.8152C217.392 80.4218 219.142 80.9404 220.913 81.3687Z" fill="#516D7B"/>
<path d="M230.666 80.9669C231.927 81.0921 233.133 81.1547 234.232 81.181C234.782 81.181 235.303 81.1972 235.792 81.181C236.28 81.1648 236.735 81.1608 237.151 81.1426C238.814 81.0699 239.842 80.9649 239.854 81.0436C239.866 81.1224 238.844 81.3386 237.177 81.5063C236.759 81.5467 236.301 81.5871 235.808 81.6073C235.315 81.6275 234.786 81.6456 234.23 81.6537C233.119 81.6537 231.895 81.6052 230.616 81.478C229.337 81.3507 228.131 81.1446 227.042 80.9204C226.499 80.7992 225.984 80.6881 225.507 80.5568C225.03 80.4255 224.586 80.3043 224.186 80.181C222.582 79.68 221.634 79.2457 221.657 79.1871C221.679 79.1285 222.667 79.4235 224.283 79.8295C224.687 79.9305 225.127 80.0315 225.606 80.1406C226.085 80.2497 226.596 80.3426 227.133 80.4538C228.214 80.6517 229.406 80.8335 230.666 80.9669Z" fill="#516D7B"/>
<path d="M212.342 53.7196C213.401 53.1198 214.492 52.5763 215.607 52.0913C216.124 51.8772 216.617 51.6691 217.086 51.5034C217.32 51.4186 217.544 51.3317 217.764 51.259L218.397 51.057C220.013 50.5499 221.049 50.3722 221.063 50.4328C221.077 50.4934 220.085 50.8126 218.516 51.4024L217.91 51.6368C217.696 51.7176 217.477 51.8146 217.249 51.9075C216.791 52.0893 216.314 52.3115 215.807 52.5317C214.797 52.9963 213.716 53.5418 212.605 54.1741C211.494 54.8064 210.478 55.471 209.575 56.1013C209.126 56.4245 208.694 56.7235 208.304 57.0266C208.102 57.176 207.916 57.3154 207.736 57.4589L207.223 57.8629C205.918 58.9174 205.152 59.6245 205.096 59.5679C205.039 59.5113 205.728 58.7235 206.987 57.5861L207.486 57.1457C207.659 56.9942 207.849 56.8447 208.041 56.6851C208.423 56.3639 208.849 56.0468 209.298 55.7094C210.278 54.9933 211.294 54.329 212.342 53.7196Z" fill="#516D7B"/>
<path d="M217.598 53.1436C218.257 52.8525 218.931 52.5963 219.618 52.3759C220.182 52.198 220.754 52.0489 221.331 51.9295C222.319 51.7275 222.947 51.6992 222.947 51.7638C222.978 51.9194 220.545 52.3699 217.792 53.6163C215.039 54.8628 213.059 56.3294 212.964 56.2041C212.923 56.1536 213.368 55.7092 214.176 55.1092C214.653 54.7595 215.146 54.4345 215.655 54.1355C216.285 53.7707 216.933 53.4396 217.598 53.1436Z" fill="#516D7B"/>
<path d="M262.775 112.553C261.686 117.639 261.229 122.839 261.415 128.036C261.488 130.03 261.639 131.64 261.745 132.753C261.85 133.866 261.924 134.482 261.888 134.486C261.827 134.347 261.789 134.2 261.773 134.05C261.716 133.761 261.633 133.333 261.547 132.779C261.381 131.67 261.173 130.058 261.054 128.052C260.755 122.818 261.163 117.568 262.266 112.442C262.599 110.945 262.963 109.491 263.377 108.107C263.791 106.723 264.205 105.398 264.589 104.133C264.973 102.869 265.32 101.665 265.599 100.525C265.746 99.9577 265.854 99.4042 265.971 98.8729C266.088 98.3416 266.173 97.8285 266.229 97.3336C266.466 95.7809 266.516 94.2056 266.381 92.6407C266.344 92.0852 266.264 91.6589 266.225 91.368C266.191 91.2198 266.179 91.0672 266.191 90.9155C266.258 91.0511 266.304 91.1961 266.328 91.3458C266.441 91.763 266.526 92.1876 266.581 92.6165C266.797 94.1961 266.799 95.7974 266.591 97.378C266.544 97.881 266.443 98.3982 266.363 98.9436C266.282 99.4891 266.161 100.047 266.015 100.62C265.757 101.776 265.421 102.992 265.05 104.257L263.87 108.236C263.462 109.628 263.106 111.069 262.775 112.553Z" fill="#516D7B"/>
<path d="M265.284 191.76C266.163 194.217 267.185 196.621 268.343 198.96L269.151 200.519C269.403 201.031 269.698 201.501 269.959 201.968C270.219 202.435 270.472 202.888 270.734 203.31L271.494 204.522C271.963 205.304 272.448 205.97 272.85 206.572C273.052 206.871 273.239 207.154 273.417 207.407L273.918 208.091C274.524 208.918 274.837 209.384 274.811 209.407C274.785 209.429 274.407 209.003 273.761 208.213L273.221 207.552C273.029 207.306 272.833 207.031 272.615 206.744C272.189 206.154 271.68 205.498 271.189 204.724L270.397 203.522C270.124 203.102 269.87 202.649 269.589 202.187C269.308 201.724 269.015 201.251 268.753 200.74L267.916 199.178C265.502 194.492 263.747 189.494 262.698 184.328L262.375 182.585C262.26 182.021 262.203 181.465 262.123 180.932C262.042 180.399 261.967 179.884 261.92 179.385L261.787 177.952C261.686 177.041 261.672 176.211 261.638 175.484C261.624 175.12 261.605 174.783 261.601 174.474V173.621C261.615 172.597 261.64 172.031 261.674 172.031C261.708 172.031 261.753 172.597 261.801 173.615L261.838 174.464C261.856 174.773 261.89 175.11 261.916 175.474C261.979 176.195 262.019 177.019 262.141 177.922L262.306 179.336C262.365 179.829 262.46 180.346 262.539 180.867C262.617 181.389 262.692 181.946 262.815 182.504L263.159 184.229C263.72 186.778 264.432 189.293 265.284 191.76Z" fill="#516D7B"/>
<path d="M261.026 182.028C261.305 183.391 261.616 184.68 261.921 185.848C262.08 186.43 262.226 186.983 262.381 187.498C262.537 188.013 262.676 188.492 262.812 188.928C263.355 190.672 263.733 191.741 263.66 191.771C263.587 191.801 263.102 190.771 262.466 189.046C262.309 188.613 262.139 188.141 261.973 187.632C261.808 187.122 261.638 186.565 261.464 185.981C261.131 184.811 260.804 183.512 260.523 182.143C260.242 180.773 260.042 179.444 259.892 178.236C259.826 177.63 259.757 177.058 259.719 176.519C259.68 175.979 259.642 175.478 259.618 175.018C259.531 173.181 259.591 172.044 259.654 172.042C259.717 172.04 259.802 173.171 259.981 174.989C260.028 175.444 260.076 175.941 260.143 176.474C260.21 177.008 260.282 177.575 260.363 178.173C260.535 179.355 260.753 180.662 261.026 182.028Z" fill="#516D7B"/>
<path d="M244.649 203.523C245.679 204.287 246.77 204.964 247.915 205.544C248.452 205.792 248.955 206.045 249.45 206.226C249.697 206.321 249.929 206.428 250.162 206.503L250.83 206.723C251.252 206.877 251.65 206.964 251.994 207.061C252.168 207.107 252.327 207.156 252.475 207.19L252.879 207.277C253.372 207.386 253.644 207.463 253.64 207.499C253.636 207.536 253.355 207.525 252.846 207.475L252.424 207.43C252.271 207.408 252.105 207.374 251.927 207.342C251.519 207.273 251.115 207.182 250.715 207.073L250.022 206.871C249.782 206.802 249.539 206.705 249.285 206.616C248.772 206.449 248.248 206.212 247.693 205.962C245.303 204.837 243.174 203.22 241.447 201.222C241.063 200.753 240.687 200.315 240.388 199.864C240.234 199.642 240.077 199.436 239.946 199.224L239.574 198.618C239.362 198.266 239.168 197.903 238.992 197.531C238.913 197.367 238.834 197.218 238.772 197.077L238.616 196.673C238.432 196.196 238.348 195.927 238.38 195.915C238.412 195.903 238.562 196.143 238.798 196.588L239 196.959C239.075 197.093 239.164 197.234 239.255 197.388C239.441 197.693 239.63 198.052 239.893 198.418L240.285 199.002C240.422 199.204 240.586 199.406 240.744 199.608C241.051 200.036 241.428 200.454 241.814 200.903C242.683 201.856 243.63 202.732 244.649 203.523Z" fill="#516D7B"/>
<path d="M252.111 204.51C253.386 205.041 254.689 205.496 256.018 205.871C256.634 206.031 257.218 206.192 257.773 206.302C258.05 206.36 258.317 206.425 258.582 206.471L259.327 206.601C259.802 206.693 260.236 206.738 260.616 206.803L261.145 206.877L261.594 206.926C262.131 206.986 262.43 207.037 262.43 207.073C262.43 207.11 262.127 207.126 261.581 207.126H261.127C260.961 207.126 260.781 207.106 260.588 207.093C260.202 207.063 259.759 207.045 259.274 206.974L258.513 206.875C258.248 206.839 257.978 206.782 257.693 206.732C257.125 206.639 256.529 206.489 255.899 206.342C253.174 205.645 250.57 204.538 248.178 203.059C247.634 202.71 247.113 202.382 246.653 202.039C246.42 201.869 246.19 201.713 245.982 201.548L245.376 201.069C244.99 200.77 244.669 200.463 244.378 200.208C244.234 200.077 244.099 199.958 243.974 199.843L243.657 199.517C243.279 199.123 243.081 198.895 243.107 198.871C243.133 198.847 243.376 199.024 243.794 199.37L244.139 199.659L244.562 199.988C244.867 200.222 245.2 200.505 245.596 200.78L246.202 201.226C246.414 201.382 246.646 201.527 246.881 201.687C247.345 202.012 247.867 202.32 248.408 202.653C249.604 203.344 250.84 203.964 252.111 204.51Z" fill="#516D7B"/>
<path d="M223.192 166.258C223.126 171.632 218.764 176.112 213.338 176.112C207.912 176.112 203.55 171.632 203.484 166.258C203.463 164.699 201.039 164.694 201.059 166.258C201.083 168.772 201.868 171.22 203.31 173.28C204.752 175.339 206.785 176.913 209.14 177.795C213.891 179.565 219.483 178.054 222.722 174.159C224.57 171.939 225.592 169.147 225.616 166.258C225.637 164.699 223.212 164.697 223.192 166.258Z" fill="#385868"/>
<path d="M185.963 214.88C186.419 219.494 188.9 223.607 192.47 226.516C196.51 229.809 201.548 231.396 206.655 232.073C216.853 233.423 228.317 232.293 236.923 226.215C241.196 223.203 244.6 219.16 246.501 214.267C247.066 212.813 244.723 212.183 244.163 213.623C240.931 221.944 232.786 227.106 224.38 229.027C219.517 230.138 214.451 230.314 209.487 229.934C204.726 229.57 199.851 228.536 195.777 225.932C191.956 223.489 188.841 219.486 188.385 214.869C188.233 213.332 185.807 213.316 185.961 214.869L185.963 214.88Z" fill="#385868"/>
<path d="M142.998 249.565H291.768C293.283 249.565 294.736 250.167 295.807 251.238C296.877 252.308 297.479 253.761 297.479 255.276V350.841C297.479 351.746 297.12 352.615 296.479 353.258C295.839 353.898 294.968 354.258 294.063 354.258H140.703C139.797 354.258 138.928 353.898 138.288 353.258C137.647 352.615 137.287 351.746 137.287 350.841V255.276C137.287 253.761 137.889 252.308 138.96 251.238C140.031 250.167 141.483 249.565 142.998 249.565Z" fill="#256075"/>
<path d="M291.679 249.335H143.97C140.521 249.335 137.727 251.973 137.727 255.226V258.335C137.727 255.082 140.521 252.444 143.97 252.444H291.679C295.128 252.444 297.922 255.082 297.922 258.335V255.226C297.922 251.971 295.128 249.335 291.679 249.335Z" fill="#347888"/>
<path d="M298.962 355.266H136.713V255.121C136.715 253.38 137.407 251.711 138.637 250.481C139.868 249.251 141.536 248.558 143.277 248.556H292.401C294.142 248.558 295.809 249.251 297.041 250.481C298.271 251.711 298.962 253.38 298.964 255.121L298.962 355.266ZM138.733 353.246H296.942V255.121C296.94 253.915 296.461 252.762 295.611 251.909C294.758 251.057 293.603 250.578 292.399 250.576H143.277C142.072 250.578 140.917 251.057 140.065 251.909C139.213 252.762 138.734 253.915 138.733 255.121V353.246Z" fill="#385868"/>
<path d="M103.679 343.273C101.032 343.265 98.4456 342.473 96.2477 340.996C94.0498 339.52 92.3389 337.425 91.3308 334.976C90.3228 332.528 90.063 329.835 90.5842 327.239C91.1054 324.643 92.3843 322.261 94.2592 320.391C96.1342 318.522 98.5212 317.249 101.118 316.736C103.716 316.221 106.407 316.49 108.853 317.504C111.298 318.52 113.388 320.237 114.859 322.439C116.329 324.641 117.113 327.229 117.113 329.877C117.104 333.433 115.685 336.841 113.166 339.352C110.648 341.863 107.236 343.273 103.679 343.273ZM103.679 320.12C101.751 320.126 99.8676 320.706 98.2676 321.783C96.6679 322.859 95.4229 324.387 94.6902 326.17C93.9574 327.954 93.7698 329.916 94.1508 331.807C94.5318 333.697 95.4645 335.433 96.8311 336.794C98.1977 338.154 99.9369 339.081 101.829 339.453C103.721 339.827 105.682 339.631 107.463 338.891C109.244 338.15 110.766 336.899 111.836 335.295C112.906 333.691 113.478 331.805 113.477 329.877C113.469 327.286 112.432 324.801 110.596 322.972C108.759 321.144 106.272 320.118 103.679 320.12Z" fill="#385868"/>
<path d="M109.235 319.928V324.397C108.023 337.798 96.0049 348.323 81.3568 348.323C66.7086 348.323 54.6907 337.798 53.4786 324.397V319.928C53.5948 318.627 53.8144 317.338 54.1352 316.073C54.272 315.534 54.5845 315.055 55.0235 314.712C55.4624 314.37 56.0028 314.183 56.5594 314.183H106.146C106.703 314.183 107.243 314.37 107.682 314.712C108.121 315.055 108.434 315.534 108.57 316.073C108.894 317.338 109.116 318.627 109.235 319.928Z" fill="#68B9E1"/>
<path d="M109.235 315.192C109.236 315.802 109.173 316.412 109.049 317.01H77.8904C77.8904 320.58 75.2016 323.475 71.8845 323.475H71.5087C70.7092 323.468 69.9193 323.299 69.1892 322.974C68.4589 322.646 67.8042 322.174 67.2664 321.582C66.124 320.333 65.4953 318.701 65.5068 317.01H53.8667C53.7427 316.412 53.6802 315.802 53.6809 315.192H109.235Z" fill="#ACD8F8"/>
<path d="M81.5586 349.333C74.2597 349.333 67.2842 346.782 61.9206 342.149C56.5571 337.517 53.2865 331.257 52.6744 324.487V324.396V319.837C52.7976 318.483 53.0279 317.142 53.3633 315.825C53.5548 315.067 53.9927 314.397 54.6079 313.916C55.2232 313.437 55.9808 313.174 56.7612 313.172H106.348C107.13 313.172 107.89 313.433 108.507 313.914C109.125 314.395 109.564 315.065 109.756 315.825C110.091 317.142 110.32 318.483 110.443 319.837V319.928V324.487C109.837 331.257 106.546 337.529 101.197 342.149C95.8471 346.77 88.8574 349.333 81.5586 349.333ZM54.6905 324.35C55.2662 330.578 58.3005 336.354 63.2418 340.62C68.2397 344.935 74.7446 347.313 81.5586 347.313C88.3726 347.313 94.8795 344.937 99.8753 340.62C104.815 336.354 107.851 330.578 108.427 324.35V319.974C108.312 318.742 108.102 317.522 107.796 316.324C107.715 316.001 107.528 315.716 107.266 315.51C107.003 315.306 106.68 315.195 106.348 315.195H56.7612C56.4286 315.195 56.1056 315.306 55.8434 315.51C55.5812 315.716 55.3943 316.001 55.3127 316.324C55.0075 317.522 54.7968 318.742 54.6824 319.974L54.6905 324.35Z" fill="#385868"/>
<path d="M51.4587 345.495H111.255C111.255 347.691 110.383 349.798 108.829 351.351C107.276 352.905 105.169 353.777 102.973 353.777H59.7414C57.5447 353.777 55.438 352.905 53.8847 351.351C52.3314 349.798 51.4587 347.691 51.4587 345.495Z" fill="#68B9E1"/>
<path d="M110.043 345.899C110.041 346.511 109.973 347.119 109.841 347.717H77.4459C77.4459 351.287 74.648 354.182 71.1996 354.182H70.8097C69.9837 354.18 69.1665 354.012 68.4071 353.687C67.648 353.361 66.9623 352.885 66.3916 352.289C65.2117 351.06 64.5561 349.42 64.5634 347.717H52.4586C52.3267 347.119 52.259 346.511 52.2566 345.899H110.043Z" fill="#ACD8F8"/>
<path d="M103.175 354.787H59.9432C57.4794 354.785 55.1174 353.803 53.3752 352.062C51.6331 350.321 50.6531 347.957 50.6505 345.494V344.484H112.467V345.494C112.465 347.957 111.485 350.321 109.742 352.062C108 353.803 105.638 354.785 103.175 354.787ZM52.7413 346.505C52.987 348.24 53.8504 349.83 55.1734 350.979C56.4964 352.131 58.1901 352.765 59.9432 352.767H103.175C104.928 352.765 106.621 352.129 107.944 350.979C109.267 349.83 110.13 348.24 110.376 346.505H52.7413Z" fill="#385868"/>
<path d="M109.235 320.142H94.4882V321.556H109.235V320.142Z" fill="#385868"/>
<g opacity="0.4">
<path opacity="0.4" d="M191.029 150.852C195.354 150.852 198.861 148.953 198.861 146.61C198.861 144.267 195.354 142.368 191.029 142.368C186.703 142.368 183.197 144.267 183.197 146.61C183.197 148.953 186.703 150.852 191.029 150.852Z" fill="white"/>
<path opacity="0.4" d="M235.62 150.852C239.945 150.852 243.452 148.953 243.452 146.61C243.452 144.267 239.945 142.368 235.62 142.368C231.295 142.368 227.788 144.267 227.788 146.61C227.788 148.953 231.295 150.852 235.62 150.852Z" fill="white"/>
</g>
</g>
</svg>
